M48
METRIC,LZ,000.000
;FILE_FORMAT=3:3
;TYPE=PLATED
;Layer: PTH_Through
;EasyEDA v6.5.34, 2023-10-27 16:27:23
;808af14f2a724accbce3cd49f21b2442,3d03538306d245868c61186af2047e2d,10
;Gerber Generator version 0.2
;Holesize 1 = 0.200 mm
T01C0.200
;Holesize 2 = 0.305 mm
T02C0.305
;Holesize 3 = 0.889 mm
T03C0.889
;Holesize 4 = 1.016 mm
T04C1.016
%
G05
G90
T01
X056992Y059240
X032729Y055866
X030210Y058508
X018169Y067310
X015088Y057066
X046992Y049620
X040264Y056081
X024617Y045974
X030236Y057494
X045341Y050927
X040772Y057884
X034263Y067521
X053224Y050664
X013977Y068020
X015104Y043255
X042951Y049988
X020317Y050475
X021402Y060991
X052615Y055376
X046972Y052324
X041356Y051847
X033680Y054194
X024473Y061945
X021856Y057489
X021392Y048754
X020080Y058913
X023302Y058315
X028019Y048726
X029920Y045744
X043537Y050927
X011378Y061960
X014317Y052931
X047002Y055272
X010067Y044345
X043200Y057278
X042467Y057275
X010176Y068630
X041906Y057283
X040558Y051856
X035735Y050796
X040650Y054852
X037255Y050310
X021080Y068017
X015823Y056133
X043547Y049939
X038475Y046126
X008457Y061953
X014280Y055991
X029561Y054218
X014314Y055360
X033682Y052390
X042022Y050758
X021219Y045156
X024082Y048363
X037255Y051283
X036337Y054993
T02
X043215Y053502
X044415Y053502
X044415Y054702
X043215Y054702
T03
X026162Y067945
X023368Y067945
T04
X046482Y067948G85X046482Y067942
X043942Y067948G85X043942Y067942
X041402Y067948G85X041402Y067942
X038862Y067948G85X038862Y067942
M30
