G04 Layer: BottomLayer*
G04 EasyEDA v6.5.34, 2023-10-27 16:27:23*
G04 808af14f2a724accbce3cd49f21b2442,3d03538306d245868c61186af2047e2d,10*
G04 Gerber Generator version 0.2*
G04 Scale: 100 percent, Rotated: No, Reflected: No *
G04 Dimensions in millimeters *
G04 leading zeros omitted , absolute positions ,4 integer and 5 decimal *
%FSLAX45Y45*%
%MOMM*%

%ADD10C,0.2030*%
%ADD11R,1.5748X1.5748*%
%ADD12R,0.5000X0.5000*%
%ADD13R,1.5240X1.5240*%
%ADD14C,1.5240*%
%ADD15C,0.6096*%
%ADD16C,0.3000*%

%LPD*%
D10*
X2121918Y4515639D02*
G01*
X2408201Y4801923D01*
X2408201Y4836264D01*
X2408227Y4836264D01*
X4202203Y5075836D02*
G01*
X4202203Y5182618D01*
X4145815Y5239006D01*
X3368194Y5239006D01*
X2108024Y6801665D02*
G01*
X1862533Y6556174D01*
X1862533Y5893564D01*
X1582295Y5613326D01*
X3573477Y5079596D02*
G01*
X3949829Y5079596D01*
X4055798Y5185564D01*
X4140202Y6794502D02*
G01*
X4140202Y5778705D01*
X4190621Y5728286D01*
X4394202Y6794502D02*
G01*
X4394202Y5801972D01*
X4320034Y5727804D01*
X1137820Y6195976D02*
G01*
X1360324Y5973472D01*
X1360324Y5364457D01*
X1431673Y5293108D01*
X4353689Y5092651D02*
G01*
X4294583Y5092651D01*
X3860116Y4658184D01*
X3075815Y4658184D01*
X2992020Y4574390D01*
X2139165Y4875405D02*
G01*
X2139139Y4875405D01*
X2139139Y5760087D01*
X2007974Y5891253D01*
X2185570Y5748886D02*
G01*
X2185596Y5748886D01*
X2185596Y5932731D01*
X2447317Y6194452D01*
X2447317Y6194452D02*
G01*
X2616202Y6363337D01*
X2616202Y6794502D01*
X2336802Y6794502D02*
G01*
X2336802Y6685257D01*
X2336802Y6685257D02*
G01*
X2140206Y6488661D01*
X2140206Y6099050D01*
X2140206Y6099050D02*
G01*
X1961898Y5920742D01*
X1961898Y5117289D01*
X2031723Y5047465D01*
X1397688Y6802020D02*
G01*
X1087478Y6491810D01*
X1087478Y4748456D01*
X1510413Y4325520D01*
X3426335Y6752059D02*
G01*
X4077185Y6101209D01*
X4077185Y5788433D01*
X2461668Y4597402D02*
G01*
X2461668Y5187444D01*
X3023618Y5749394D01*
X4321507Y5470197D02*
G01*
X4321507Y5350207D01*
X4321507Y5470197D02*
G01*
X4164307Y5470197D01*
X4026435Y5608068D01*
X4441497Y5470197D02*
G01*
X4441497Y5350207D01*
X4699154Y4961994D02*
G01*
X4699154Y5092550D01*
X4441497Y5350207D01*
X1816889Y6730977D02*
G01*
X1816864Y6730977D01*
X1816864Y6014671D01*
X1508787Y5706595D01*
D11*
G01*
X2616200Y6794500D03*
G01*
X2336800Y6794500D03*
D12*
G01*
X5699201Y5923991D03*
D13*
G01*
X4648200Y6794500D03*
D14*
G01*
X4394200Y6794500D03*
G01*
X4140200Y6794500D03*
G01*
X3886200Y6794500D03*
D15*
G01*
X4321505Y5350205D03*
G01*
X4441494Y5350205D03*
G01*
X4441494Y5470194D03*
G01*
X4321505Y5470194D03*
D16*
G01*
X3272894Y5586580D03*
G01*
X3020951Y5850765D03*
G01*
X1816889Y6730977D03*
G01*
X1508787Y5706595D03*
G01*
X4699154Y4961994D03*
G01*
X4026435Y5608068D03*
G01*
X2461668Y4597402D03*
G01*
X3023618Y5749394D03*
G01*
X4534131Y5092677D03*
G01*
X4077185Y5788433D03*
G01*
X3426335Y6752059D03*
G01*
X5322420Y5066388D03*
G01*
X1397688Y6802020D03*
G01*
X1510413Y4325520D03*
G01*
X4295091Y4998824D03*
G01*
X2031723Y5047465D03*
G01*
X2140206Y6099050D03*
G01*
X5261510Y5537634D03*
G01*
X4697224Y5232427D03*
G01*
X4135605Y5184701D03*
G01*
X3368017Y5419422D03*
G01*
X2447317Y6194452D03*
G01*
X2185570Y5748886D03*
G01*
X2139165Y4875405D03*
G01*
X2007974Y5891253D03*
G01*
X2330198Y5831486D03*
G01*
X2801876Y4872560D03*
G01*
X2992020Y4574390D03*
G01*
X4353689Y5092651D03*
G01*
X1137820Y6195976D03*
G01*
X1431673Y5293108D03*
G01*
X4700196Y5527245D03*
G01*
X1006655Y4434512D03*
G01*
X4320034Y5727804D03*
G01*
X4246730Y5727473D03*
G01*
X1017602Y6863006D03*
G01*
X4190621Y5728286D03*
G01*
X4055798Y5185564D03*
G01*
X3573477Y5079596D03*
G01*
X4064993Y5485208D03*
G01*
X3725496Y5031031D03*
G01*
X2108024Y6801665D03*
G01*
X1582295Y5613326D03*
G01*
X4354680Y4993921D03*
G01*
X3847543Y4612566D03*
G01*
X845720Y6195291D03*
G01*
X1428015Y5599102D03*
G01*
X2956130Y5421835D03*
G01*
X1431444Y5536008D03*
G01*
X3368194Y5239006D03*
G01*
X4202203Y5075836D03*
G01*
X2121918Y4515639D03*
G01*
X2408227Y4836264D03*
G01*
X3725496Y5128287D03*
G01*
X3633650Y5499254D03*
M02*
