G04 Layer: TopSilkscreenLayer*
G04 EasyEDA v6.5.34, 2023-10-27 16:27:23*
G04 808af14f2a724accbce3cd49f21b2442,3d03538306d245868c61186af2047e2d,10*
G04 Gerber Generator version 0.2*
G04 Scale: 100 percent, Rotated: No, Reflected: No *
G04 Dimensions in millimeters *
G04 leading zeros omitted , absolute positions ,4 integer and 5 decimal *
%FSLAX45Y45*%
%MOMM*%

%ADD10C,0.1524*%
%ADD11C,0.0508*%
%ADD12C,0.2540*%
%ADD13C,0.2032*%
%ADD14C,0.2030*%
%ADD15C,0.1499*%
%ADD16C,0.1520*%
%ADD17C,0.2000*%
%ADD18C,0.3000*%
%ADD19C,0.0762*%
%ADD20C,0.0175*%

%LPD*%
D10*
X973836Y4700015D02*
G01*
X971550Y4704587D01*
X966978Y4709160D01*
X962405Y4711445D01*
X953515Y4711445D01*
X948944Y4709160D01*
X944371Y4704587D01*
X942086Y4700015D01*
X939800Y4693157D01*
X939800Y4681728D01*
X942086Y4674870D01*
X944371Y4670552D01*
X948944Y4665979D01*
X953515Y4663694D01*
X962405Y4663694D01*
X966978Y4665979D01*
X971550Y4670552D01*
X973836Y4674870D01*
X988821Y4702302D02*
G01*
X993394Y4704587D01*
X1000252Y4711445D01*
X1000252Y4663694D01*
X3107436Y6122415D02*
G01*
X3105150Y6126987D01*
X3100577Y6131560D01*
X3096006Y6133845D01*
X3087115Y6133845D01*
X3082543Y6131560D01*
X3077972Y6126987D01*
X3075686Y6122415D01*
X3073400Y6115557D01*
X3073400Y6104128D01*
X3075686Y6097270D01*
X3077972Y6092952D01*
X3082543Y6088379D01*
X3087115Y6086094D01*
X3096006Y6086094D01*
X3100577Y6088379D01*
X3105150Y6092952D01*
X3107436Y6097270D01*
X3126993Y6133845D02*
G01*
X3152140Y6133845D01*
X3138424Y6115557D01*
X3145281Y6115557D01*
X3149854Y6113271D01*
X3152140Y6110986D01*
X3154425Y6104128D01*
X3154425Y6099555D01*
X3152140Y6092952D01*
X3147568Y6088379D01*
X3140709Y6086094D01*
X3133852Y6086094D01*
X3126993Y6088379D01*
X3124708Y6090665D01*
X3122422Y6095237D01*
X3374136Y6973315D02*
G01*
X3371850Y6977887D01*
X3367277Y6982460D01*
X3362706Y6984745D01*
X3353815Y6984745D01*
X3349243Y6982460D01*
X3344672Y6977887D01*
X3342386Y6973315D01*
X3340100Y6966458D01*
X3340100Y6955028D01*
X3342386Y6948170D01*
X3344672Y6943852D01*
X3349243Y6939279D01*
X3353815Y6936994D01*
X3362706Y6936994D01*
X3367277Y6939279D01*
X3371850Y6943852D01*
X3374136Y6948170D01*
X3411981Y6984745D02*
G01*
X3389122Y6952742D01*
X3423158Y6952742D01*
X3411981Y6984745D02*
G01*
X3411981Y6936994D01*
X5228336Y4801621D02*
G01*
X5226050Y4806193D01*
X5221477Y4810765D01*
X5216906Y4813051D01*
X5208015Y4813051D01*
X5203443Y4810765D01*
X5198872Y4806193D01*
X5196586Y4801621D01*
X5194300Y4794763D01*
X5194300Y4783333D01*
X5196586Y4776475D01*
X5198872Y4772157D01*
X5203443Y4767585D01*
X5208015Y4765299D01*
X5216906Y4765299D01*
X5221477Y4767585D01*
X5226050Y4772157D01*
X5228336Y4776475D01*
X5275325Y4813051D02*
G01*
X5252465Y4765299D01*
X5243322Y4813051D02*
G01*
X5275325Y4813051D01*
X4961636Y5995415D02*
G01*
X4959350Y5999987D01*
X4954777Y6004560D01*
X4950206Y6006845D01*
X4941315Y6006845D01*
X4936743Y6004560D01*
X4932172Y5999987D01*
X4929886Y5995415D01*
X4927600Y5988557D01*
X4927600Y5977128D01*
X4929886Y5970270D01*
X4932172Y5965952D01*
X4936743Y5961379D01*
X4941315Y5959094D01*
X4950206Y5959094D01*
X4954777Y5961379D01*
X4959350Y5965952D01*
X4961636Y5970270D01*
X4976622Y5997702D02*
G01*
X4981193Y5999987D01*
X4988052Y6006845D01*
X4988052Y5959094D01*
X5005324Y5995415D02*
G01*
X5005324Y5997702D01*
X5007609Y6002273D01*
X5009895Y6004560D01*
X5014468Y6006845D01*
X5023611Y6006845D01*
X5027929Y6004560D01*
X5030215Y6002273D01*
X5032502Y5997702D01*
X5032502Y5993129D01*
X5030215Y5988557D01*
X5025897Y5981700D01*
X5003038Y5959094D01*
X5034788Y5959094D01*
X3613711Y5741415D02*
G01*
X3611425Y5745987D01*
X3606853Y5750560D01*
X3602281Y5752845D01*
X3593391Y5752845D01*
X3588819Y5750560D01*
X3584247Y5745987D01*
X3581961Y5741415D01*
X3579675Y5734557D01*
X3579675Y5723128D01*
X3581961Y5716270D01*
X3584247Y5711952D01*
X3588819Y5707379D01*
X3593391Y5705094D01*
X3602281Y5705094D01*
X3606853Y5707379D01*
X3611425Y5711952D01*
X3613711Y5716270D01*
X3628697Y5743702D02*
G01*
X3633269Y5745987D01*
X3640127Y5752845D01*
X3640127Y5705094D01*
X3686863Y5752845D02*
G01*
X3664257Y5705094D01*
X3655113Y5752845D02*
G01*
X3686863Y5752845D01*
X2548636Y5766815D02*
G01*
X2546350Y5771387D01*
X2541777Y5775960D01*
X2537206Y5778245D01*
X2528315Y5778245D01*
X2523743Y5775960D01*
X2519172Y5771387D01*
X2516886Y5766815D01*
X2514600Y5759957D01*
X2514600Y5748528D01*
X2516886Y5741670D01*
X2519172Y5737352D01*
X2523743Y5732779D01*
X2528315Y5730494D01*
X2537206Y5730494D01*
X2541777Y5732779D01*
X2546350Y5737352D01*
X2548636Y5741670D01*
X2565908Y5766815D02*
G01*
X2565908Y5769102D01*
X2568193Y5773673D01*
X2570479Y5775960D01*
X2575052Y5778245D01*
X2584195Y5778245D01*
X2588768Y5775960D01*
X2591054Y5773673D01*
X2593340Y5769102D01*
X2593340Y5764529D01*
X2591054Y5759957D01*
X2586481Y5753100D01*
X2563622Y5730494D01*
X2595625Y5730494D01*
X4634484Y4948936D02*
G01*
X4629911Y4946650D01*
X4625340Y4942078D01*
X4623054Y4937505D01*
X4623054Y4928615D01*
X4625340Y4924044D01*
X4629911Y4919471D01*
X4634484Y4917186D01*
X4641341Y4914900D01*
X4652772Y4914900D01*
X4659629Y4917186D01*
X4663947Y4919471D01*
X4668520Y4924044D01*
X4670806Y4928615D01*
X4670806Y4937505D01*
X4668520Y4942078D01*
X4663947Y4946650D01*
X4659629Y4948936D01*
X4623054Y4991354D02*
G01*
X4623054Y4968494D01*
X4643627Y4966207D01*
X4641341Y4968494D01*
X4639056Y4975352D01*
X4639056Y4982210D01*
X4641341Y4989068D01*
X4645913Y4993639D01*
X4652772Y4995926D01*
X4657343Y4995926D01*
X4663947Y4993639D01*
X4668520Y4989068D01*
X4670806Y4982210D01*
X4670806Y4975352D01*
X4668520Y4968494D01*
X4666234Y4966207D01*
X4661661Y4963921D01*
X5421884Y5190241D02*
G01*
X5417311Y5187955D01*
X5412740Y5183383D01*
X5410454Y5178811D01*
X5410454Y5169921D01*
X5412740Y5165349D01*
X5417311Y5160777D01*
X5421884Y5158491D01*
X5428741Y5156205D01*
X5440172Y5156205D01*
X5447029Y5158491D01*
X5451347Y5160777D01*
X5455920Y5165349D01*
X5458206Y5169921D01*
X5458206Y5178811D01*
X5455920Y5183383D01*
X5451347Y5187955D01*
X5447029Y5190241D01*
X5417311Y5232659D02*
G01*
X5412740Y5230373D01*
X5410454Y5223515D01*
X5410454Y5218943D01*
X5412740Y5212085D01*
X5419597Y5207513D01*
X5431027Y5205227D01*
X5442458Y5205227D01*
X5451347Y5207513D01*
X5455920Y5212085D01*
X5458206Y5218943D01*
X5458206Y5221229D01*
X5455920Y5228087D01*
X5451347Y5232659D01*
X5444743Y5234945D01*
X5442458Y5234945D01*
X5435600Y5232659D01*
X5431027Y5228087D01*
X5428741Y5221229D01*
X5428741Y5218943D01*
X5431027Y5212085D01*
X5435600Y5207513D01*
X5442458Y5205227D01*
X4504436Y4890515D02*
G01*
X4502150Y4895087D01*
X4497577Y4899660D01*
X4493006Y4901945D01*
X4484115Y4901945D01*
X4479543Y4899660D01*
X4474972Y4895087D01*
X4472686Y4890515D01*
X4470400Y4883657D01*
X4470400Y4872228D01*
X4472686Y4865370D01*
X4474972Y4861052D01*
X4479543Y4856479D01*
X4484115Y4854194D01*
X4493006Y4854194D01*
X4497577Y4856479D01*
X4502150Y4861052D01*
X4504436Y4865370D01*
X4530852Y4901945D02*
G01*
X4523993Y4899660D01*
X4521708Y4895087D01*
X4521708Y4890515D01*
X4523993Y4885944D01*
X4528565Y4883657D01*
X4537709Y4881371D01*
X4544568Y4879086D01*
X4549140Y4874513D01*
X4551425Y4869942D01*
X4551425Y4863337D01*
X4549140Y4858765D01*
X4546854Y4856479D01*
X4539995Y4854194D01*
X4530852Y4854194D01*
X4523993Y4856479D01*
X4521708Y4858765D01*
X4519422Y4863337D01*
X4519422Y4869942D01*
X4521708Y4874513D01*
X4526279Y4879086D01*
X4533138Y4881371D01*
X4542281Y4883657D01*
X4546854Y4885944D01*
X4549140Y4890515D01*
X4549140Y4895087D01*
X4546854Y4899660D01*
X4539995Y4901945D01*
X4530852Y4901945D01*
X4161536Y4915915D02*
G01*
X4159250Y4920487D01*
X4154677Y4925060D01*
X4150106Y4927345D01*
X4141215Y4927345D01*
X4136643Y4925060D01*
X4132072Y4920487D01*
X4129786Y4915915D01*
X4127500Y4909057D01*
X4127500Y4897628D01*
X4129786Y4890770D01*
X4132072Y4886452D01*
X4136643Y4881879D01*
X4141215Y4879594D01*
X4150106Y4879594D01*
X4154677Y4881879D01*
X4159250Y4886452D01*
X4161536Y4890770D01*
X4206240Y4911344D02*
G01*
X4203954Y4904486D01*
X4199381Y4899913D01*
X4192524Y4897628D01*
X4190238Y4897628D01*
X4183379Y4899913D01*
X4178808Y4904486D01*
X4176522Y4911344D01*
X4176522Y4913629D01*
X4178808Y4920487D01*
X4183379Y4925060D01*
X4190238Y4927345D01*
X4192524Y4927345D01*
X4199381Y4925060D01*
X4203954Y4920487D01*
X4206240Y4911344D01*
X4206240Y4899913D01*
X4203954Y4888737D01*
X4199381Y4881879D01*
X4192524Y4879594D01*
X4187952Y4879594D01*
X4181093Y4881879D01*
X4178808Y4886452D01*
X5423915Y5922263D02*
G01*
X5428488Y5924550D01*
X5433059Y5929121D01*
X5435345Y5933694D01*
X5435345Y5942584D01*
X5433059Y5947155D01*
X5428488Y5951728D01*
X5423915Y5954013D01*
X5417058Y5956300D01*
X5405627Y5956300D01*
X5398770Y5954013D01*
X5394452Y5951728D01*
X5389879Y5947155D01*
X5387593Y5942584D01*
X5387593Y5933694D01*
X5389879Y5929121D01*
X5394452Y5924550D01*
X5398770Y5922263D01*
X5426202Y5907278D02*
G01*
X5428488Y5902705D01*
X5435345Y5895847D01*
X5387593Y5895847D01*
X5435345Y5867145D02*
G01*
X5433059Y5874004D01*
X5426202Y5878576D01*
X5414772Y5880862D01*
X5407913Y5880862D01*
X5396738Y5878576D01*
X5389879Y5874004D01*
X5387593Y5867145D01*
X5387593Y5862573D01*
X5389879Y5855970D01*
X5396738Y5851397D01*
X5407913Y5849112D01*
X5414772Y5849112D01*
X5426202Y5851397D01*
X5433059Y5855970D01*
X5435345Y5862573D01*
X5435345Y5867145D01*
X4776215Y5617463D02*
G01*
X4780788Y5619750D01*
X4785359Y5624321D01*
X4787645Y5628894D01*
X4787645Y5637784D01*
X4785359Y5642355D01*
X4780788Y5646928D01*
X4776215Y5649213D01*
X4769358Y5651500D01*
X4757927Y5651500D01*
X4751070Y5649213D01*
X4746752Y5646928D01*
X4742179Y5642355D01*
X4739893Y5637784D01*
X4739893Y5628894D01*
X4742179Y5624321D01*
X4746752Y5619750D01*
X4751070Y5617463D01*
X4778502Y5602478D02*
G01*
X4780788Y5597905D01*
X4787645Y5591047D01*
X4739893Y5591047D01*
X4778502Y5576062D02*
G01*
X4780788Y5571489D01*
X4787645Y5564631D01*
X4739893Y5564631D01*
X3885184Y5723636D02*
G01*
X3880611Y5721350D01*
X3876040Y5716778D01*
X3873754Y5712205D01*
X3873754Y5703315D01*
X3876040Y5698744D01*
X3880611Y5694171D01*
X3885184Y5691886D01*
X3892041Y5689600D01*
X3903472Y5689600D01*
X3910329Y5691886D01*
X3914647Y5694171D01*
X3919220Y5698744D01*
X3921506Y5703315D01*
X3921506Y5712205D01*
X3919220Y5716778D01*
X3914647Y5721350D01*
X3910329Y5723636D01*
X3882897Y5738621D02*
G01*
X3880611Y5743194D01*
X3873754Y5750052D01*
X3921506Y5750052D01*
X3873754Y5769610D02*
G01*
X3873754Y5794502D01*
X3892041Y5781039D01*
X3892041Y5787897D01*
X3894327Y5792215D01*
X3896613Y5794502D01*
X3903472Y5796787D01*
X3908043Y5796787D01*
X3914647Y5794502D01*
X3919220Y5789929D01*
X3921506Y5783326D01*
X3921506Y5776468D01*
X3919220Y5769610D01*
X3916934Y5767323D01*
X3912361Y5765037D01*
X4182363Y4888484D02*
G01*
X4184650Y4883912D01*
X4189222Y4879339D01*
X4193793Y4877054D01*
X4202684Y4877054D01*
X4207256Y4879339D01*
X4211827Y4883912D01*
X4214113Y4888484D01*
X4216400Y4895342D01*
X4216400Y4906771D01*
X4214113Y4913629D01*
X4211827Y4917947D01*
X4207256Y4922520D01*
X4202684Y4924805D01*
X4193793Y4924805D01*
X4189222Y4922520D01*
X4184650Y4917947D01*
X4182363Y4913629D01*
X4167377Y4886197D02*
G01*
X4162806Y4883912D01*
X4155947Y4877054D01*
X4155947Y4924805D01*
X4118102Y4877054D02*
G01*
X4140961Y4909057D01*
X4106925Y4909057D01*
X4118102Y4877054D02*
G01*
X4118102Y4924805D01*
X4479036Y5906515D02*
G01*
X4476750Y5911087D01*
X4472177Y5915660D01*
X4467606Y5917945D01*
X4458715Y5917945D01*
X4454143Y5915660D01*
X4449572Y5911087D01*
X4447286Y5906515D01*
X4445000Y5899657D01*
X4445000Y5888228D01*
X4447286Y5881370D01*
X4449572Y5877052D01*
X4454143Y5872479D01*
X4458715Y5870194D01*
X4467606Y5870194D01*
X4472177Y5872479D01*
X4476750Y5877052D01*
X4479036Y5881370D01*
X4494022Y5908802D02*
G01*
X4498593Y5911087D01*
X4505452Y5917945D01*
X4505452Y5870194D01*
X4547615Y5917945D02*
G01*
X4525009Y5917945D01*
X4522724Y5897371D01*
X4525009Y5899657D01*
X4531868Y5901944D01*
X4538725Y5901944D01*
X4545329Y5899657D01*
X4549902Y5895086D01*
X4552188Y5888228D01*
X4552188Y5883655D01*
X4549902Y5877052D01*
X4545329Y5872479D01*
X4538725Y5870194D01*
X4531868Y5870194D01*
X4525009Y5872479D01*
X4522724Y5874765D01*
X4520438Y5879337D01*
X1319784Y3932936D02*
G01*
X1315212Y3930650D01*
X1310639Y3926078D01*
X1308354Y3921505D01*
X1308354Y3912615D01*
X1310639Y3908044D01*
X1315212Y3903471D01*
X1319784Y3901186D01*
X1326642Y3898900D01*
X1338071Y3898900D01*
X1344929Y3901186D01*
X1349247Y3903471D01*
X1353820Y3908044D01*
X1356105Y3912615D01*
X1356105Y3921505D01*
X1353820Y3926078D01*
X1349247Y3930650D01*
X1344929Y3932936D01*
X1317497Y3947921D02*
G01*
X1315212Y3952494D01*
X1308354Y3959352D01*
X1356105Y3959352D01*
X1315212Y4001515D02*
G01*
X1310639Y3999229D01*
X1308354Y3992626D01*
X1308354Y3988054D01*
X1310639Y3981195D01*
X1317497Y3976623D01*
X1328928Y3974337D01*
X1340357Y3974337D01*
X1349247Y3976623D01*
X1353820Y3981195D01*
X1356105Y3988054D01*
X1356105Y3990339D01*
X1353820Y3997197D01*
X1349247Y4001515D01*
X1342644Y4003802D01*
X1340357Y4003802D01*
X1333500Y4001515D01*
X1328928Y3997197D01*
X1326642Y3990339D01*
X1326642Y3988054D01*
X1328928Y3981195D01*
X1333500Y3976623D01*
X1340357Y3974337D01*
X3461362Y5411215D02*
G01*
X3459076Y5415787D01*
X3454504Y5420360D01*
X3449932Y5422645D01*
X3440788Y5422645D01*
X3436470Y5420360D01*
X3431898Y5415787D01*
X3429612Y5411215D01*
X3427326Y5404357D01*
X3427326Y5392928D01*
X3429612Y5386070D01*
X3431898Y5381752D01*
X3436470Y5377179D01*
X3440788Y5374894D01*
X3449932Y5374894D01*
X3454504Y5377179D01*
X3459076Y5381752D01*
X3461362Y5386070D01*
X3476348Y5413502D02*
G01*
X3480920Y5415787D01*
X3487778Y5422645D01*
X3487778Y5374894D01*
X3514194Y5422645D02*
G01*
X3507336Y5420360D01*
X3505050Y5415787D01*
X3505050Y5411215D01*
X3507336Y5406644D01*
X3511908Y5404357D01*
X3520798Y5402071D01*
X3527656Y5399786D01*
X3532228Y5395213D01*
X3534514Y5390642D01*
X3534514Y5384037D01*
X3532228Y5379465D01*
X3529942Y5377179D01*
X3523084Y5374894D01*
X3514194Y5374894D01*
X3507336Y5377179D01*
X3505050Y5379465D01*
X3502764Y5384037D01*
X3502764Y5390642D01*
X3505050Y5395213D01*
X3509622Y5399786D01*
X3516480Y5402071D01*
X3525370Y5404357D01*
X3529942Y5406644D01*
X3532228Y5411215D01*
X3532228Y5415787D01*
X3529942Y5420360D01*
X3523084Y5422645D01*
X3514194Y5422645D01*
X3310636Y5766815D02*
G01*
X3308350Y5771387D01*
X3303777Y5775960D01*
X3299206Y5778245D01*
X3290315Y5778245D01*
X3285743Y5775960D01*
X3281172Y5771387D01*
X3278886Y5766815D01*
X3276600Y5759957D01*
X3276600Y5748528D01*
X3278886Y5741670D01*
X3281172Y5737352D01*
X3285743Y5732779D01*
X3290315Y5730494D01*
X3299206Y5730494D01*
X3303777Y5732779D01*
X3308350Y5737352D01*
X3310636Y5741670D01*
X3325622Y5769102D02*
G01*
X3330193Y5771387D01*
X3337052Y5778245D01*
X3337052Y5730494D01*
X3381502Y5762244D02*
G01*
X3379215Y5755386D01*
X3374897Y5750813D01*
X3368040Y5748528D01*
X3365754Y5748528D01*
X3358895Y5750813D01*
X3354324Y5755386D01*
X3352038Y5762244D01*
X3352038Y5764529D01*
X3354324Y5771387D01*
X3358895Y5775960D01*
X3365754Y5778245D01*
X3368040Y5778245D01*
X3374897Y5775960D01*
X3379215Y5771387D01*
X3381502Y5762244D01*
X3381502Y5750813D01*
X3379215Y5739637D01*
X3374897Y5732779D01*
X3368040Y5730494D01*
X3363468Y5730494D01*
X3356609Y5732779D01*
X3354324Y5737352D01*
X3513836Y5906515D02*
G01*
X3511550Y5911087D01*
X3506977Y5915660D01*
X3502406Y5917945D01*
X3493515Y5917945D01*
X3488943Y5915660D01*
X3484372Y5911087D01*
X3482086Y5906515D01*
X3479800Y5899657D01*
X3479800Y5888228D01*
X3482086Y5881370D01*
X3484372Y5877052D01*
X3488943Y5872479D01*
X3493515Y5870194D01*
X3502406Y5870194D01*
X3506977Y5872479D01*
X3511550Y5877052D01*
X3513836Y5881370D01*
X3531108Y5906515D02*
G01*
X3531108Y5908802D01*
X3533393Y5913373D01*
X3535679Y5915660D01*
X3540252Y5917945D01*
X3549395Y5917945D01*
X3553968Y5915660D01*
X3556254Y5913373D01*
X3558540Y5908802D01*
X3558540Y5904229D01*
X3556254Y5899657D01*
X3551681Y5892800D01*
X3528822Y5870194D01*
X3560825Y5870194D01*
X3589274Y5917945D02*
G01*
X3582415Y5915660D01*
X3578097Y5908802D01*
X3575811Y5897371D01*
X3575811Y5890513D01*
X3578097Y5879337D01*
X3582415Y5872479D01*
X3589274Y5870194D01*
X3593845Y5870194D01*
X3600704Y5872479D01*
X3605275Y5879337D01*
X3607561Y5890513D01*
X3607561Y5897371D01*
X3605275Y5908802D01*
X3600704Y5915660D01*
X3593845Y5917945D01*
X3589274Y5917945D01*
X3567684Y6472936D02*
G01*
X3563111Y6470650D01*
X3558540Y6466078D01*
X3556254Y6461505D01*
X3556254Y6452615D01*
X3558540Y6448044D01*
X3563111Y6443471D01*
X3567684Y6441186D01*
X3574541Y6438900D01*
X3585972Y6438900D01*
X3592829Y6441186D01*
X3597147Y6443471D01*
X3601720Y6448044D01*
X3604006Y6452615D01*
X3604006Y6461505D01*
X3601720Y6466078D01*
X3597147Y6470650D01*
X3592829Y6472936D01*
X3567684Y6490207D02*
G01*
X3565397Y6490207D01*
X3560825Y6492494D01*
X3558540Y6494779D01*
X3556254Y6499352D01*
X3556254Y6508495D01*
X3558540Y6513068D01*
X3560825Y6515354D01*
X3565397Y6517639D01*
X3569970Y6517639D01*
X3574541Y6515354D01*
X3581400Y6510781D01*
X3604006Y6487921D01*
X3604006Y6519926D01*
X3565397Y6534912D02*
G01*
X3563111Y6539229D01*
X3556254Y6546087D01*
X3604006Y6546087D01*
X1850136Y4700015D02*
G01*
X1847850Y4704587D01*
X1843278Y4709160D01*
X1838705Y4711445D01*
X1829815Y4711445D01*
X1825244Y4709160D01*
X1820671Y4704587D01*
X1818386Y4700015D01*
X1816100Y4693157D01*
X1816100Y4681728D01*
X1818386Y4674870D01*
X1820671Y4670552D01*
X1825244Y4665979D01*
X1829815Y4663694D01*
X1838705Y4663694D01*
X1843278Y4665979D01*
X1847850Y4670552D01*
X1850136Y4674870D01*
X1867407Y4700015D02*
G01*
X1867407Y4702302D01*
X1869694Y4706873D01*
X1871979Y4709160D01*
X1876552Y4711445D01*
X1885695Y4711445D01*
X1890268Y4709160D01*
X1892554Y4706873D01*
X1894839Y4702302D01*
X1894839Y4697729D01*
X1892554Y4693157D01*
X1887981Y4686300D01*
X1865121Y4663694D01*
X1897126Y4663694D01*
X1914397Y4700015D02*
G01*
X1914397Y4702302D01*
X1916429Y4706873D01*
X1918715Y4709160D01*
X1923287Y4711445D01*
X1932431Y4711445D01*
X1937004Y4709160D01*
X1939290Y4706873D01*
X1941575Y4702302D01*
X1941575Y4697729D01*
X1939290Y4693157D01*
X1934718Y4686300D01*
X1912112Y4663694D01*
X1943861Y4663694D01*
X2123188Y4101558D02*
G01*
X2117854Y4111972D01*
X2107440Y4122386D01*
X2097280Y4127466D01*
X2076452Y4127466D01*
X2066038Y4122386D01*
X2055624Y4111972D01*
X2050290Y4101558D01*
X2045210Y4085810D01*
X2045210Y4059902D01*
X2050290Y4044408D01*
X2055624Y4033994D01*
X2066038Y4023580D01*
X2076452Y4018500D01*
X2097280Y4018500D01*
X2107440Y4023580D01*
X2117854Y4033994D01*
X2123188Y4044408D01*
X2157478Y4127466D02*
G01*
X2157478Y4018500D01*
X2157478Y4127466D02*
G01*
X2230122Y4018500D01*
X2230122Y4127466D02*
G01*
X2230122Y4018500D01*
X2264412Y4106638D02*
G01*
X2274826Y4111972D01*
X2290320Y4127466D01*
X2290320Y4018500D01*
X3132327Y5295900D02*
G01*
X3208781Y5295900D01*
X3132327Y5295900D02*
G01*
X3132327Y5321300D01*
X3135884Y5332221D01*
X3143250Y5339587D01*
X3150615Y5343144D01*
X3161538Y5346700D01*
X3179572Y5346700D01*
X3190493Y5343144D01*
X3197859Y5339587D01*
X3205225Y5332221D01*
X3208781Y5321300D01*
X3208781Y5295900D01*
X3146806Y5370829D02*
G01*
X3143250Y5378195D01*
X3132327Y5388863D01*
X3208781Y5388863D01*
X2634488Y4533900D02*
G01*
X2701290Y4533900D01*
X2634488Y4533900D02*
G01*
X2634488Y4556252D01*
X2637536Y4565650D01*
X2643886Y4572000D01*
X2650490Y4575302D01*
X2659888Y4578350D01*
X2675890Y4578350D01*
X2685288Y4575302D01*
X2691638Y4572000D01*
X2697988Y4565650D01*
X2701290Y4556252D01*
X2701290Y4533900D01*
X2650490Y4602734D02*
G01*
X2647188Y4602734D01*
X2640838Y4605781D01*
X2637536Y4609084D01*
X2634488Y4615434D01*
X2634488Y4628134D01*
X2637536Y4634484D01*
X2640838Y4637531D01*
X2647188Y4640834D01*
X2653538Y4640834D01*
X2659888Y4637531D01*
X2669540Y4631181D01*
X2701290Y4599431D01*
X2701290Y4643881D01*
X2610865Y6615937D02*
G01*
X2610865Y6543294D01*
X2606293Y6529578D01*
X2601722Y6525005D01*
X2592577Y6520434D01*
X2583688Y6520434D01*
X2574543Y6525005D01*
X2569972Y6529578D01*
X2565400Y6543294D01*
X2565400Y6552437D01*
X2640838Y6597904D02*
G01*
X2649981Y6602476D01*
X2663697Y6615937D01*
X2663697Y6520434D01*
X2306065Y6628637D02*
G01*
X2306065Y6555994D01*
X2301493Y6542278D01*
X2296922Y6537705D01*
X2287777Y6533134D01*
X2278888Y6533134D01*
X2269743Y6537705D01*
X2265172Y6542278D01*
X2260600Y6555994D01*
X2260600Y6565137D01*
X2340609Y6606031D02*
G01*
X2340609Y6610604D01*
X2345181Y6619494D01*
X2349754Y6624065D01*
X2358897Y6628637D01*
X2376931Y6628637D01*
X2386075Y6624065D01*
X2390647Y6619494D01*
X2395220Y6610604D01*
X2395220Y6601460D01*
X2390647Y6592315D01*
X2381504Y6578600D01*
X2336038Y6533134D01*
X2399791Y6533134D01*
X2959354Y5740400D02*
G01*
X3007106Y5740400D01*
X3007106Y5740400D02*
G01*
X3007106Y5767578D01*
X2968497Y5782563D02*
G01*
X2966211Y5787136D01*
X2959354Y5793994D01*
X3007106Y5793994D01*
X4965700Y5194051D02*
G01*
X4965700Y5146299D01*
X4965700Y5146299D02*
G01*
X4992877Y5146299D01*
X5010150Y5182621D02*
G01*
X5010150Y5184907D01*
X5012436Y5189479D01*
X5014722Y5191765D01*
X5019293Y5194051D01*
X5028438Y5194051D01*
X5033009Y5191765D01*
X5035295Y5189479D01*
X5037581Y5184907D01*
X5037581Y5180335D01*
X5035295Y5175763D01*
X5030724Y5168905D01*
X5007863Y5146299D01*
X5039868Y5146299D01*
X5130800Y5727445D02*
G01*
X5130800Y5679694D01*
X5130800Y5679694D02*
G01*
X5157977Y5679694D01*
X5177536Y5727445D02*
G01*
X5202681Y5727445D01*
X5188965Y5709157D01*
X5195824Y5709157D01*
X5200395Y5706871D01*
X5202681Y5704586D01*
X5204968Y5697728D01*
X5204968Y5693155D01*
X5202681Y5686552D01*
X5198109Y5681979D01*
X5191252Y5679694D01*
X5184393Y5679694D01*
X5177536Y5681979D01*
X5175250Y5684265D01*
X5172963Y5688837D01*
X1744454Y6634050D02*
G01*
X1696702Y6634050D01*
X1696702Y6634050D02*
G01*
X1696702Y6606872D01*
X1744454Y6591632D02*
G01*
X1696702Y6591632D01*
X1744454Y6591632D02*
G01*
X1744454Y6562168D01*
X1721594Y6591632D02*
G01*
X1721594Y6573598D01*
X1696702Y6591632D02*
G01*
X1696702Y6562168D01*
X1744454Y6547182D02*
G01*
X1696702Y6547182D01*
X1744454Y6547182D02*
G01*
X1744454Y6531180D01*
X1742168Y6524576D01*
X1737596Y6520004D01*
X1733024Y6517718D01*
X1726166Y6515432D01*
X1714990Y6515432D01*
X1708132Y6517718D01*
X1703560Y6520004D01*
X1698988Y6524576D01*
X1696702Y6531180D01*
X1696702Y6547182D01*
X1735310Y6500446D02*
G01*
X1737596Y6495874D01*
X1744454Y6489016D01*
X1696702Y6489016D01*
X2908554Y6692900D02*
G01*
X2956306Y6692900D01*
X2956306Y6692900D02*
G01*
X2956306Y6720078D01*
X2908554Y6735063D02*
G01*
X2956306Y6735063D01*
X2908554Y6735063D02*
G01*
X2908554Y6764781D01*
X2931413Y6735063D02*
G01*
X2931413Y6753352D01*
X2956306Y6735063D02*
G01*
X2956306Y6764781D01*
X2908554Y6779768D02*
G01*
X2956306Y6779768D01*
X2908554Y6779768D02*
G01*
X2908554Y6795515D01*
X2910840Y6802373D01*
X2915411Y6806945D01*
X2919984Y6809231D01*
X2926841Y6811518D01*
X2938272Y6811518D01*
X2945129Y6809231D01*
X2949447Y6806945D01*
X2954020Y6802373D01*
X2956306Y6795515D01*
X2956306Y6779768D01*
X2919984Y6828789D02*
G01*
X2917697Y6828789D01*
X2913125Y6831076D01*
X2910840Y6833362D01*
X2908554Y6837934D01*
X2908554Y6847078D01*
X2910840Y6851650D01*
X2913125Y6853681D01*
X2917697Y6855968D01*
X2922270Y6855968D01*
X2926841Y6853681D01*
X2933700Y6849363D01*
X2956306Y6826504D01*
X2956306Y6858254D01*
X2434843Y5021071D02*
G01*
X2427477Y5017515D01*
X2420365Y5010150D01*
X2416556Y5002784D01*
X2413000Y4991862D01*
X2413000Y4973828D01*
X2416556Y4962905D01*
X2420365Y4955539D01*
X2427477Y4948173D01*
X2434843Y4944618D01*
X2449322Y4944618D01*
X2456688Y4948173D01*
X2463800Y4955539D01*
X2467609Y4962905D01*
X2471165Y4973828D01*
X2471165Y4991862D01*
X2467609Y5002784D01*
X2463800Y5010150D01*
X2456688Y5017515D01*
X2449322Y5021071D01*
X2434843Y5021071D01*
X2445765Y4959095D02*
G01*
X2467609Y4937505D01*
X2495295Y5006594D02*
G01*
X2502408Y5010150D01*
X2513329Y5021071D01*
X2513329Y4944618D01*
X1701800Y4889245D02*
G01*
X1701800Y4841494D01*
X1701800Y4889245D02*
G01*
X1722373Y4889245D01*
X1728978Y4886960D01*
X1731263Y4884673D01*
X1733550Y4880102D01*
X1733550Y4875529D01*
X1731263Y4870957D01*
X1728978Y4868671D01*
X1722373Y4866386D01*
X1701800Y4866386D01*
X1717802Y4866386D02*
G01*
X1733550Y4841494D01*
X1748536Y4880102D02*
G01*
X1753107Y4882387D01*
X1759965Y4889245D01*
X1759965Y4841494D01*
X2972308Y4628895D02*
G01*
X2972308Y4581144D01*
X2972308Y4628895D02*
G01*
X2992881Y4628895D01*
X2999486Y4626610D01*
X3001772Y4624323D01*
X3004058Y4619752D01*
X3004058Y4615179D01*
X3001772Y4610607D01*
X2999486Y4608321D01*
X2992881Y4606036D01*
X2972308Y4606036D01*
X2988309Y4606036D02*
G01*
X3004058Y4581144D01*
X3021329Y4617465D02*
G01*
X3021329Y4619752D01*
X3023615Y4624323D01*
X3025902Y4626610D01*
X3030474Y4628895D01*
X3039618Y4628895D01*
X3044190Y4626610D01*
X3046475Y4624323D01*
X3048761Y4619752D01*
X3048761Y4615179D01*
X3046475Y4610607D01*
X3041904Y4603750D01*
X3019043Y4581144D01*
X3051047Y4581144D01*
X2641345Y6210300D02*
G01*
X2593593Y6210300D01*
X2641345Y6210300D02*
G01*
X2641345Y6189726D01*
X2639059Y6183121D01*
X2636774Y6180836D01*
X2632202Y6178550D01*
X2627629Y6178550D01*
X2623058Y6180836D01*
X2620772Y6183121D01*
X2618486Y6189726D01*
X2618486Y6210300D01*
X2618486Y6194297D02*
G01*
X2593593Y6178550D01*
X2641345Y6158992D02*
G01*
X2641345Y6133845D01*
X2623058Y6147562D01*
X2623058Y6140704D01*
X2620772Y6136131D01*
X2618486Y6133845D01*
X2611627Y6131560D01*
X2607056Y6131560D01*
X2600452Y6133845D01*
X2595879Y6138418D01*
X2593593Y6145276D01*
X2593593Y6152134D01*
X2595879Y6158992D01*
X2598165Y6161278D01*
X2602738Y6163563D01*
X4470400Y5079745D02*
G01*
X4470400Y5031994D01*
X4470400Y5079745D02*
G01*
X4490974Y5079745D01*
X4497577Y5077460D01*
X4499863Y5075173D01*
X4502150Y5070602D01*
X4502150Y5066029D01*
X4499863Y5061457D01*
X4497577Y5059171D01*
X4490974Y5056886D01*
X4470400Y5056886D01*
X4486402Y5056886D02*
G01*
X4502150Y5031994D01*
X4539995Y5079745D02*
G01*
X4517136Y5047742D01*
X4551425Y5047742D01*
X4539995Y5079745D02*
G01*
X4539995Y5031994D01*
X1321054Y4305300D02*
G01*
X1368805Y4305300D01*
X1321054Y4305300D02*
G01*
X1321054Y4325873D01*
X1323339Y4332478D01*
X1325626Y4334763D01*
X1330197Y4337050D01*
X1334770Y4337050D01*
X1339342Y4334763D01*
X1341628Y4332478D01*
X1343913Y4325873D01*
X1343913Y4305300D01*
X1343913Y4321302D02*
G01*
X1368805Y4337050D01*
X1321054Y4379468D02*
G01*
X1321054Y4356607D01*
X1341628Y4354321D01*
X1339342Y4356607D01*
X1337055Y4363465D01*
X1337055Y4370323D01*
X1339342Y4377181D01*
X1343913Y4381754D01*
X1350771Y4384039D01*
X1355344Y4384039D01*
X1361947Y4381754D01*
X1366520Y4377181D01*
X1368805Y4370323D01*
X1368805Y4363465D01*
X1366520Y4356607D01*
X1364234Y4354321D01*
X1359662Y4352036D01*
X851407Y6165595D02*
G01*
X851407Y6117844D01*
X851407Y6165595D02*
G01*
X871981Y6165595D01*
X878586Y6163310D01*
X880871Y6161023D01*
X883157Y6156452D01*
X883157Y6151879D01*
X880871Y6147307D01*
X878586Y6145021D01*
X871981Y6142736D01*
X851407Y6142736D01*
X867410Y6142736D02*
G01*
X883157Y6117844D01*
X925576Y6158737D02*
G01*
X923289Y6163310D01*
X916431Y6165595D01*
X911860Y6165595D01*
X905002Y6163310D01*
X900429Y6156452D01*
X898144Y6145021D01*
X898144Y6133592D01*
X900429Y6124702D01*
X905002Y6120129D01*
X911860Y6117844D01*
X914145Y6117844D01*
X921004Y6120129D01*
X925576Y6124702D01*
X927862Y6131305D01*
X927862Y6133592D01*
X925576Y6140450D01*
X921004Y6145021D01*
X914145Y6147307D01*
X911860Y6147307D01*
X905002Y6145021D01*
X900429Y6140450D01*
X898144Y6133592D01*
X1143507Y6165595D02*
G01*
X1143507Y6117844D01*
X1143507Y6165595D02*
G01*
X1164081Y6165595D01*
X1170686Y6163310D01*
X1172971Y6161023D01*
X1175257Y6156452D01*
X1175257Y6151879D01*
X1172971Y6147307D01*
X1170686Y6145021D01*
X1164081Y6142736D01*
X1143507Y6142736D01*
X1159510Y6142736D02*
G01*
X1175257Y6117844D01*
X1222247Y6165595D02*
G01*
X1199387Y6117844D01*
X1190244Y6165595D02*
G01*
X1222247Y6165595D01*
X2985008Y4832095D02*
G01*
X2985008Y4784344D01*
X2985008Y4832095D02*
G01*
X3005581Y4832095D01*
X3012186Y4829810D01*
X3014472Y4827523D01*
X3016758Y4822952D01*
X3016758Y4818379D01*
X3014472Y4813807D01*
X3012186Y4811521D01*
X3005581Y4809236D01*
X2985008Y4809236D01*
X3001009Y4809236D02*
G01*
X3016758Y4784344D01*
X3043174Y4832095D02*
G01*
X3036315Y4829810D01*
X3034029Y4825237D01*
X3034029Y4820665D01*
X3036315Y4816094D01*
X3040888Y4813807D01*
X3050031Y4811521D01*
X3056890Y4809236D01*
X3061461Y4804663D01*
X3063747Y4800092D01*
X3063747Y4793487D01*
X3061461Y4788915D01*
X3059175Y4786629D01*
X3052318Y4784344D01*
X3043174Y4784344D01*
X3036315Y4786629D01*
X3034029Y4788915D01*
X3031743Y4793487D01*
X3031743Y4800092D01*
X3034029Y4804663D01*
X3038602Y4809236D01*
X3045459Y4811521D01*
X3054604Y4813807D01*
X3059175Y4816094D01*
X3061461Y4820665D01*
X3061461Y4825237D01*
X3059175Y4829810D01*
X3052318Y4832095D01*
X3043174Y4832095D01*
X1575562Y6546850D02*
G01*
X1609852Y6546850D01*
X1616455Y6549136D01*
X1621028Y6553708D01*
X1623313Y6560565D01*
X1623313Y6565137D01*
X1621028Y6571742D01*
X1616455Y6576313D01*
X1609852Y6578600D01*
X1575562Y6578600D01*
X1575562Y6621018D02*
G01*
X1575562Y6598158D01*
X1596136Y6595871D01*
X1593850Y6598158D01*
X1591563Y6605015D01*
X1591563Y6611873D01*
X1593850Y6618731D01*
X1598421Y6623304D01*
X1605279Y6625589D01*
X1609852Y6625589D01*
X1616455Y6623304D01*
X1621028Y6618731D01*
X1623313Y6611873D01*
X1623313Y6605015D01*
X1621028Y6598158D01*
X1618742Y6595871D01*
X1614170Y6593586D01*
X2058161Y6616700D02*
G01*
X2023872Y6616700D01*
X2017268Y6614413D01*
X2012695Y6609842D01*
X2010409Y6602984D01*
X2010409Y6598412D01*
X2012695Y6591808D01*
X2017268Y6587236D01*
X2023872Y6584950D01*
X2058161Y6584950D01*
X2051304Y6542531D02*
G01*
X2055875Y6544818D01*
X2058161Y6551676D01*
X2058161Y6556247D01*
X2055875Y6563105D01*
X2049018Y6567678D01*
X2037588Y6569963D01*
X2026158Y6569963D01*
X2017268Y6567678D01*
X2012695Y6563105D01*
X2010409Y6556247D01*
X2010409Y6553962D01*
X2012695Y6547104D01*
X2017268Y6542531D01*
X2023872Y6540245D01*
X2026158Y6540245D01*
X2033015Y6542531D01*
X2037588Y6547104D01*
X2039874Y6553962D01*
X2039874Y6556247D01*
X2037588Y6563105D01*
X2033015Y6567678D01*
X2026158Y6569963D01*
X2361945Y5511800D02*
G01*
X2327656Y5511800D01*
X2321052Y5509513D01*
X2316479Y5504942D01*
X2314193Y5498084D01*
X2314193Y5493512D01*
X2316479Y5486907D01*
X2321052Y5482336D01*
X2327656Y5480050D01*
X2361945Y5480050D01*
X2361945Y5433060D02*
G01*
X2314193Y5455920D01*
X2361945Y5465063D02*
G01*
X2361945Y5433060D01*
X2933954Y6413500D02*
G01*
X2968243Y6413500D01*
X2974847Y6415786D01*
X2979420Y6420357D01*
X2981706Y6427215D01*
X2981706Y6431787D01*
X2979420Y6438392D01*
X2974847Y6442963D01*
X2968243Y6445250D01*
X2933954Y6445250D01*
X2949956Y6489954D02*
G01*
X2956813Y6487668D01*
X2961386Y6483095D01*
X2963672Y6476237D01*
X2963672Y6473952D01*
X2961386Y6467094D01*
X2956813Y6462521D01*
X2949956Y6460236D01*
X2947670Y6460236D01*
X2940811Y6462521D01*
X2936240Y6467094D01*
X2933954Y6473952D01*
X2933954Y6476237D01*
X2936240Y6483095D01*
X2940811Y6487668D01*
X2949956Y6489954D01*
X2961386Y6489954D01*
X2972561Y6487668D01*
X2979420Y6483095D01*
X2981706Y6476237D01*
X2981706Y6471665D01*
X2979420Y6464807D01*
X2974847Y6462521D01*
X793750Y4165600D02*
G01*
X786384Y4158487D01*
X782828Y4147565D01*
X782828Y4133087D01*
X786384Y4122165D01*
X793750Y4114800D01*
X801115Y4114800D01*
X808228Y4118355D01*
X812037Y4122165D01*
X815594Y4129278D01*
X822960Y4151121D01*
X826515Y4158487D01*
X830071Y4162044D01*
X837437Y4165600D01*
X848360Y4165600D01*
X855726Y4158487D01*
X859281Y4147565D01*
X859281Y4133087D01*
X855726Y4122165D01*
X848360Y4114800D01*
X782828Y4189729D02*
G01*
X859281Y4207763D01*
X782828Y4226052D02*
G01*
X859281Y4207763D01*
X782828Y4226052D02*
G01*
X859281Y4244339D01*
X782828Y4262373D02*
G01*
X859281Y4244339D01*
X797305Y4286504D02*
G01*
X793750Y4293615D01*
X782828Y4304537D01*
X859281Y4304537D01*
X4825238Y5384800D02*
G01*
X4757165Y5384800D01*
X4743450Y5380228D01*
X4734306Y5371084D01*
X4729734Y5357621D01*
X4729734Y5348478D01*
X4734306Y5334762D01*
X4743450Y5325618D01*
X4757165Y5321045D01*
X4825238Y5321045D01*
X4802631Y5286502D02*
G01*
X4807204Y5286502D01*
X4816093Y5282184D01*
X4820665Y5277612D01*
X4825238Y5268468D01*
X4825238Y5250179D01*
X4820665Y5241289D01*
X4816093Y5236718D01*
X4807204Y5232145D01*
X4798059Y5232145D01*
X4788915Y5236718D01*
X4775200Y5245607D01*
X4729734Y5291073D01*
X4729734Y5227573D01*
X1714500Y5922771D02*
G01*
X1714500Y5868162D01*
X1718055Y5857239D01*
X1725421Y5849873D01*
X1736344Y5846318D01*
X1743710Y5846318D01*
X1754378Y5849873D01*
X1761744Y5857239D01*
X1765300Y5868162D01*
X1765300Y5922771D01*
X1796795Y5922771D02*
G01*
X1836673Y5922771D01*
X1814829Y5893562D01*
X1825752Y5893562D01*
X1833118Y5890005D01*
X1836673Y5886450D01*
X1840229Y5875528D01*
X1840229Y5868162D01*
X1836673Y5857239D01*
X1829307Y5849873D01*
X1818386Y5846318D01*
X1807463Y5846318D01*
X1796795Y5849873D01*
X1792986Y5853684D01*
X1789429Y5860795D01*
X1895774Y6635435D02*
G01*
X1861484Y6635435D01*
X1854880Y6633149D01*
X1850308Y6628577D01*
X1848022Y6621973D01*
X1848022Y6617401D01*
X1850308Y6610543D01*
X1854880Y6605971D01*
X1861484Y6603685D01*
X1895774Y6603685D01*
X1895774Y6565839D02*
G01*
X1863770Y6588699D01*
X1863770Y6554663D01*
X1895774Y6565839D02*
G01*
X1848022Y6565839D01*
X3302000Y6718045D02*
G01*
X3302000Y6683755D01*
X3304286Y6677152D01*
X3308858Y6672579D01*
X3315715Y6670294D01*
X3320288Y6670294D01*
X3326891Y6672579D01*
X3331463Y6677152D01*
X3333750Y6683755D01*
X3333750Y6718045D01*
X3360165Y6718045D02*
G01*
X3353308Y6715760D01*
X3351022Y6711187D01*
X3351022Y6706615D01*
X3353308Y6702044D01*
X3357879Y6699758D01*
X3367024Y6697471D01*
X3373881Y6695186D01*
X3378454Y6690613D01*
X3380740Y6686042D01*
X3380740Y6679437D01*
X3378454Y6674865D01*
X3376168Y6672579D01*
X3369309Y6670294D01*
X3360165Y6670294D01*
X3353308Y6672579D01*
X3351022Y6674865D01*
X3348736Y6679437D01*
X3348736Y6686042D01*
X3351022Y6690613D01*
X3355593Y6695186D01*
X3362452Y6697471D01*
X3371595Y6699758D01*
X3376168Y6702044D01*
X3378454Y6706615D01*
X3378454Y6711187D01*
X3376168Y6715760D01*
X3369309Y6718045D01*
X3360165Y6718045D01*
X2133600Y6077712D02*
G01*
X2133600Y6029960D01*
X2136902Y6020562D01*
X2143252Y6014212D01*
X2152650Y6010910D01*
X2159000Y6010910D01*
X2168652Y6014212D01*
X2175002Y6020562D01*
X2178050Y6029960D01*
X2178050Y6077712D01*
X2199131Y6065012D02*
G01*
X2205481Y6068313D01*
X2215134Y6077712D01*
X2215134Y6010910D01*
X2255265Y6077712D02*
G01*
X2245613Y6074663D01*
X2239263Y6065012D01*
X2235961Y6049010D01*
X2235961Y6039612D01*
X2239263Y6023610D01*
X2245613Y6014212D01*
X2255265Y6010910D01*
X2261615Y6010910D01*
X2271013Y6014212D01*
X2277363Y6023610D01*
X2280665Y6039612D01*
X2280665Y6049010D01*
X2277363Y6065012D01*
X2271013Y6074663D01*
X2261615Y6077712D01*
X2255265Y6077712D01*
X3581400Y4896612D02*
G01*
X3581400Y4848860D01*
X3584702Y4839462D01*
X3591052Y4833112D01*
X3600450Y4829810D01*
X3606800Y4829810D01*
X3616452Y4833112D01*
X3622802Y4839462D01*
X3625850Y4848860D01*
X3625850Y4896612D01*
X3646931Y4883912D02*
G01*
X3653281Y4887213D01*
X3662934Y4896612D01*
X3662934Y4829810D01*
X3687063Y4880610D02*
G01*
X3687063Y4883912D01*
X3690111Y4890262D01*
X3693413Y4893563D01*
X3699763Y4896612D01*
X3712463Y4896612D01*
X3718813Y4893563D01*
X3722115Y4890262D01*
X3725163Y4883912D01*
X3725163Y4877562D01*
X3722115Y4871212D01*
X3715765Y4861560D01*
X3683761Y4829810D01*
X3728465Y4829810D01*
X1042415Y5638812D02*
G01*
X964437Y5638812D01*
X948944Y5633732D01*
X938529Y5623318D01*
X933450Y5607570D01*
X933450Y5597156D01*
X938529Y5581662D01*
X948944Y5571248D01*
X964437Y5566168D01*
X1042415Y5566168D01*
X1026921Y5458980D02*
G01*
X1037336Y5469394D01*
X1042415Y5485142D01*
X1042415Y5505716D01*
X1037336Y5521464D01*
X1026921Y5531878D01*
X1016507Y5531878D01*
X1006094Y5526544D01*
X1000760Y5521464D01*
X995679Y5511050D01*
X985265Y5479808D01*
X980186Y5469394D01*
X974852Y5464314D01*
X964437Y5458980D01*
X948944Y5458980D01*
X938529Y5469394D01*
X933450Y5485142D01*
X933450Y5505716D01*
X938529Y5521464D01*
X948944Y5531878D01*
X1042415Y5424690D02*
G01*
X933450Y5424690D01*
X1042415Y5424690D02*
G01*
X1042415Y5377954D01*
X1037336Y5362460D01*
X1032002Y5357126D01*
X1021587Y5352046D01*
X1011173Y5352046D01*
X1000760Y5357126D01*
X995679Y5362460D01*
X990600Y5377954D01*
X990600Y5424690D02*
G01*
X990600Y5377954D01*
X985265Y5362460D01*
X980186Y5357126D01*
X969771Y5352046D01*
X954023Y5352046D01*
X943610Y5357126D01*
X938529Y5362460D01*
X933450Y5377954D01*
X933450Y5424690D01*
X1021587Y5317756D02*
G01*
X1026921Y5307342D01*
X1042415Y5291848D01*
X933450Y5291848D01*
X4648200Y4609337D02*
G01*
X4711954Y4513834D01*
X4711954Y4609337D02*
G01*
X4648200Y4513834D01*
X4741925Y4591304D02*
G01*
X4750815Y4595876D01*
X4764531Y4609337D01*
X4764531Y4513834D01*
X5651245Y4857546D02*
G01*
X5582920Y4857546D01*
X5569458Y4853228D01*
X5560313Y4844084D01*
X5555741Y4830368D01*
X5555741Y4821224D01*
X5560313Y4807762D01*
X5569458Y4798618D01*
X5582920Y4794046D01*
X5651245Y4794046D01*
X5632958Y4764074D02*
G01*
X5637529Y4754930D01*
X5651245Y4741214D01*
X5555741Y4741214D01*
X5632958Y4711242D02*
G01*
X5637529Y4702098D01*
X5651245Y4688636D01*
X5555741Y4688636D01*
X4254500Y6450837D02*
G01*
X4254500Y6382765D01*
X4259072Y6369050D01*
X4268215Y6359905D01*
X4281677Y6355334D01*
X4290822Y6355334D01*
X4304538Y6359905D01*
X4313681Y6369050D01*
X4318254Y6382765D01*
X4318254Y6450837D01*
X4348225Y6432804D02*
G01*
X4357115Y6437376D01*
X4370831Y6450837D01*
X4370831Y6355334D01*
D11*
X4733797Y6508242D02*
G01*
X4710938Y6568694D01*
X4687824Y6508242D02*
G01*
X4710938Y6568694D01*
X4625340Y6522720D02*
G01*
X4628388Y6516878D01*
X4633975Y6511036D01*
X4639818Y6508242D01*
X4651247Y6508242D01*
X4657090Y6511036D01*
X4662931Y6516878D01*
X4665725Y6522720D01*
X4668774Y6531355D01*
X4668774Y6545579D01*
X4665725Y6554470D01*
X4662931Y6560058D01*
X4657090Y6565900D01*
X4651247Y6568694D01*
X4639818Y6568694D01*
X4633975Y6565900D01*
X4628388Y6560058D01*
X4625340Y6554470D01*
X4563109Y6522720D02*
G01*
X4565904Y6516878D01*
X4571745Y6511036D01*
X4577588Y6508242D01*
X4589018Y6508242D01*
X4594859Y6511036D01*
X4600447Y6516878D01*
X4603495Y6522720D01*
X4606290Y6531355D01*
X4606290Y6545579D01*
X4603495Y6554470D01*
X4600447Y6560058D01*
X4594859Y6565900D01*
X4589018Y6568694D01*
X4577588Y6568694D01*
X4571745Y6565900D01*
X4565904Y6560058D01*
X4563109Y6554470D01*
X4488179Y6508242D02*
G01*
X4488179Y6568694D01*
X4508500Y6508242D02*
G01*
X4468113Y6508242D01*
X4449063Y6508242D02*
G01*
X4449063Y6568694D01*
X4449063Y6508242D02*
G01*
X4423156Y6508242D01*
X4414520Y6511036D01*
X4411472Y6513829D01*
X4408677Y6519671D01*
X4408677Y6525513D01*
X4411472Y6531355D01*
X4414520Y6534150D01*
X4423156Y6536944D01*
X4449063Y6536944D01*
X4428743Y6536944D02*
G01*
X4408677Y6568694D01*
X4389627Y6508242D02*
G01*
X4389627Y6568694D01*
X4327143Y6522720D02*
G01*
X4330191Y6516878D01*
X4335779Y6511036D01*
X4341622Y6508242D01*
X4353306Y6508242D01*
X4358893Y6511036D01*
X4364736Y6516878D01*
X4367529Y6522720D01*
X4370577Y6531355D01*
X4370577Y6545579D01*
X4367529Y6554470D01*
X4364736Y6560058D01*
X4358893Y6565900D01*
X4353306Y6568694D01*
X4341622Y6568694D01*
X4335779Y6565900D01*
X4330191Y6560058D01*
X4327143Y6554470D01*
X4327143Y6545579D01*
X4341622Y6545579D02*
G01*
X4327143Y6545579D01*
X4254500Y6508242D02*
G01*
X4254500Y6568694D01*
X4254500Y6508242D02*
G01*
X4216908Y6508242D01*
X4254500Y6536944D02*
G01*
X4231386Y6536944D01*
X4254500Y6568694D02*
G01*
X4216908Y6568694D01*
X4154677Y6522720D02*
G01*
X4157472Y6516878D01*
X4163313Y6511036D01*
X4169156Y6508242D01*
X4180586Y6508242D01*
X4186427Y6511036D01*
X4192270Y6516878D01*
X4195063Y6522720D01*
X4197858Y6531355D01*
X4197858Y6545579D01*
X4195063Y6554470D01*
X4192270Y6560058D01*
X4186427Y6565900D01*
X4180586Y6568694D01*
X4169156Y6568694D01*
X4163313Y6565900D01*
X4157472Y6560058D01*
X4154677Y6554470D01*
X4135627Y6508242D02*
G01*
X4135627Y6568694D01*
X4095241Y6508242D02*
G01*
X4095241Y6568694D01*
X4135627Y6536944D02*
G01*
X4095241Y6536944D01*
X4058920Y6508242D02*
G01*
X4064508Y6511036D01*
X4070350Y6516878D01*
X4073143Y6522720D01*
X4076191Y6531355D01*
X4076191Y6545579D01*
X4073143Y6554470D01*
X4070350Y6560058D01*
X4064508Y6565900D01*
X4058920Y6568694D01*
X4047236Y6568694D01*
X4041393Y6565900D01*
X4035806Y6560058D01*
X4032758Y6554470D01*
X4029963Y6545579D01*
X4029963Y6531355D01*
X4032758Y6522720D01*
X4035806Y6516878D01*
X4041393Y6511036D01*
X4047236Y6508242D01*
X4058920Y6508242D01*
X3928618Y6522720D02*
G01*
X3931411Y6516878D01*
X3937254Y6511036D01*
X3943095Y6508242D01*
X3954525Y6508242D01*
X3960368Y6511036D01*
X3966209Y6516878D01*
X3969004Y6522720D01*
X3971797Y6531355D01*
X3971797Y6545579D01*
X3969004Y6554470D01*
X3966209Y6560058D01*
X3960368Y6565900D01*
X3954525Y6568694D01*
X3943095Y6568694D01*
X3937254Y6565900D01*
X3931411Y6560058D01*
X3928618Y6554470D01*
X3928618Y6545579D01*
X3943095Y6545579D02*
G01*
X3928618Y6545579D01*
X3909568Y6508242D02*
G01*
X3909568Y6568694D01*
X3909568Y6508242D02*
G01*
X3869181Y6568694D01*
X3869181Y6508242D02*
G01*
X3869181Y6568694D01*
X3850131Y6508242D02*
G01*
X3850131Y6568694D01*
X3850131Y6508242D02*
G01*
X3829811Y6508242D01*
X3821175Y6511036D01*
X3815588Y6516878D01*
X3812540Y6522720D01*
X3809745Y6531355D01*
X3809745Y6545579D01*
X3812540Y6554470D01*
X3815588Y6560058D01*
X3821175Y6565900D01*
X3829811Y6568694D01*
X3850131Y6568694D01*
D10*
X1447292Y6491986D02*
G01*
X1442720Y6489700D01*
X1438147Y6485128D01*
X1435862Y6480555D01*
X1435862Y6471665D01*
X1438147Y6467094D01*
X1442720Y6462521D01*
X1447292Y6460236D01*
X1454150Y6457950D01*
X1465579Y6457950D01*
X1472437Y6460236D01*
X1476755Y6462521D01*
X1481328Y6467094D01*
X1483613Y6471665D01*
X1483613Y6480555D01*
X1481328Y6485128D01*
X1476755Y6489700D01*
X1472437Y6491986D01*
X1447292Y6509257D02*
G01*
X1445005Y6509257D01*
X1440434Y6511544D01*
X1438147Y6513829D01*
X1435862Y6518402D01*
X1435862Y6527545D01*
X1438147Y6532118D01*
X1440434Y6534404D01*
X1445005Y6536689D01*
X1449578Y6536689D01*
X1454150Y6534404D01*
X1461007Y6529831D01*
X1483613Y6506971D01*
X1483613Y6538976D01*
X1435862Y6558279D02*
G01*
X1435862Y6583426D01*
X1454150Y6569710D01*
X1454150Y6576568D01*
X1456436Y6581139D01*
X1458721Y6583426D01*
X1465579Y6585712D01*
X1470152Y6585712D01*
X1476755Y6583426D01*
X1481328Y6578854D01*
X1483613Y6571995D01*
X1483613Y6565137D01*
X1481328Y6558279D01*
X1479042Y6556247D01*
X1474470Y6553962D01*
X1410462Y6813550D02*
G01*
X1458213Y6813550D01*
X1410462Y6813550D02*
G01*
X1410462Y6834123D01*
X1412747Y6840728D01*
X1415034Y6843013D01*
X1419605Y6845300D01*
X1424178Y6845300D01*
X1428750Y6843013D01*
X1431036Y6840728D01*
X1433321Y6834123D01*
X1433321Y6813550D01*
X1433321Y6829552D02*
G01*
X1458213Y6845300D01*
X1426463Y6890004D02*
G01*
X1433321Y6887718D01*
X1437894Y6883145D01*
X1440179Y6876287D01*
X1440179Y6874002D01*
X1437894Y6867144D01*
X1433321Y6862571D01*
X1426463Y6860286D01*
X1424178Y6860286D01*
X1417320Y6862571D01*
X1412747Y6867144D01*
X1410462Y6874002D01*
X1410462Y6876287D01*
X1412747Y6883145D01*
X1417320Y6887718D01*
X1426463Y6890004D01*
X1437894Y6890004D01*
X1449070Y6887718D01*
X1455928Y6883145D01*
X1458213Y6876287D01*
X1458213Y6871715D01*
X1455928Y6864858D01*
X1451355Y6862571D01*
X793750Y6565900D02*
G01*
X786384Y6558787D01*
X782828Y6547865D01*
X782828Y6533387D01*
X786384Y6522465D01*
X793750Y6515100D01*
X801115Y6515100D01*
X808228Y6518655D01*
X812037Y6522465D01*
X815594Y6529578D01*
X822960Y6551421D01*
X826515Y6558787D01*
X830071Y6562344D01*
X837437Y6565900D01*
X848360Y6565900D01*
X855726Y6558787D01*
X859281Y6547865D01*
X859281Y6533387D01*
X855726Y6522465D01*
X848360Y6515100D01*
X782828Y6590029D02*
G01*
X859281Y6608063D01*
X782828Y6626352D02*
G01*
X859281Y6608063D01*
X782828Y6626352D02*
G01*
X859281Y6644639D01*
X782828Y6662673D02*
G01*
X859281Y6644639D01*
X801115Y6690360D02*
G01*
X797305Y6690360D01*
X790194Y6693915D01*
X786384Y6697726D01*
X782828Y6704837D01*
X782828Y6719570D01*
X786384Y6726681D01*
X790194Y6730492D01*
X797305Y6734047D01*
X804671Y6734047D01*
X812037Y6730492D01*
X822960Y6723126D01*
X859281Y6686804D01*
X859281Y6737604D01*
G36*
X4639106Y5202174D02*
G01*
X4591507Y5154523D01*
X4591507Y5152593D01*
X4639106Y5160213D01*
G37*
G36*
X1845005Y6920788D02*
G01*
X1845005Y6905548D01*
X1914194Y6905548D01*
X1914194Y6920788D01*
G37*
D12*
X1067498Y4671722D02*
G01*
X1067498Y4751725D01*
X1178473Y4640737D02*
G01*
X1098476Y4640737D01*
X1178473Y4782703D02*
G01*
X1098476Y4782703D01*
X1236063Y4640155D02*
G01*
X1316062Y4640155D01*
X1347045Y4671138D02*
G01*
X1347045Y4751136D01*
X1236063Y4782116D02*
G01*
X1316062Y4782116D01*
X3466401Y6161377D02*
G01*
X3466401Y6081374D01*
X3355426Y6192362D02*
G01*
X3435423Y6192362D01*
X3355426Y6050396D02*
G01*
X3435423Y6050396D01*
X3297836Y6192944D02*
G01*
X3217837Y6192944D01*
X3186854Y6161961D02*
G01*
X3186854Y6081963D01*
X3297836Y6050983D02*
G01*
X3217837Y6050983D01*
X3504501Y6872577D02*
G01*
X3504501Y6792574D01*
X3393526Y6903562D02*
G01*
X3473523Y6903562D01*
X3393526Y6761596D02*
G01*
X3473523Y6761596D01*
X3335936Y6904144D02*
G01*
X3255937Y6904144D01*
X3224954Y6873161D02*
G01*
X3224954Y6793163D01*
X3335936Y6762183D02*
G01*
X3255937Y6762183D01*
X5371401Y4980277D02*
G01*
X5371401Y4900274D01*
X5260426Y5011262D02*
G01*
X5340423Y5011262D01*
X5260426Y4869296D02*
G01*
X5340423Y4869296D01*
X5202836Y5011844D02*
G01*
X5122837Y5011844D01*
X5091854Y4980861D02*
G01*
X5091854Y4900863D01*
X5202836Y4869883D02*
G01*
X5122837Y4869883D01*
X5092001Y5894671D02*
G01*
X5092001Y5814669D01*
X4981026Y5925657D02*
G01*
X5061023Y5925657D01*
X4981026Y5783691D02*
G01*
X5061023Y5783691D01*
X4923436Y5926239D02*
G01*
X4843437Y5926239D01*
X4812454Y5895256D02*
G01*
X4812454Y5815258D01*
X4923436Y5784278D02*
G01*
X4843437Y5784278D01*
X3820276Y5640677D02*
G01*
X3820276Y5560674D01*
X3709301Y5671662D02*
G01*
X3789299Y5671662D01*
X3709301Y5529696D02*
G01*
X3789299Y5529696D01*
X3651712Y5672244D02*
G01*
X3571712Y5672244D01*
X3540729Y5641261D02*
G01*
X3540729Y5561263D01*
X3651712Y5530283D02*
G01*
X3571712Y5530283D01*
D10*
X2667030Y5942660D02*
G01*
X2588021Y5942660D01*
X2588021Y5842939D02*
G01*
X2667030Y5842939D01*
X2682270Y5858179D02*
G01*
X2682270Y5927420D01*
X2463769Y5942660D02*
G01*
X2542778Y5942660D01*
X2542778Y5842939D02*
G01*
X2463769Y5842939D01*
X2448529Y5858179D02*
G01*
X2448529Y5927420D01*
X4712639Y5118130D02*
G01*
X4712639Y5039121D01*
X4812360Y5039121D02*
G01*
X4812360Y5118130D01*
X4797120Y5133370D02*
G01*
X4727879Y5133370D01*
X4712639Y4914869D02*
G01*
X4712639Y4993878D01*
X4812360Y4993878D02*
G01*
X4812360Y4914869D01*
X4797120Y4899629D02*
G01*
X4727879Y4899629D01*
X5258739Y5334030D02*
G01*
X5258739Y5255021D01*
X5358460Y5255021D02*
G01*
X5358460Y5334030D01*
X5343220Y5349270D02*
G01*
X5273979Y5349270D01*
X5258739Y5130769D02*
G01*
X5258739Y5209778D01*
X5358460Y5209778D02*
G01*
X5358460Y5130769D01*
X5343220Y5115529D02*
G01*
X5273979Y5115529D01*
X4648230Y4837760D02*
G01*
X4569221Y4837760D01*
X4569221Y4738039D02*
G01*
X4648230Y4738039D01*
X4663470Y4753279D02*
G01*
X4663470Y4822520D01*
X4444969Y4837760D02*
G01*
X4523978Y4837760D01*
X4523978Y4738039D02*
G01*
X4444969Y4738039D01*
X4429729Y4753279D02*
G01*
X4429729Y4822520D01*
X4343430Y4850460D02*
G01*
X4264421Y4850460D01*
X4264421Y4750739D02*
G01*
X4343430Y4750739D01*
X4358670Y4765979D02*
G01*
X4358670Y4835220D01*
X4140169Y4850460D02*
G01*
X4219178Y4850460D01*
X4219178Y4750739D02*
G01*
X4140169Y4750739D01*
X4124929Y4765979D02*
G01*
X4124929Y4835220D01*
X5333060Y5791169D02*
G01*
X5333060Y5870178D01*
X5233339Y5870178D02*
G01*
X5233339Y5791169D01*
X5248579Y5775929D02*
G01*
X5317820Y5775929D01*
X5333060Y5994430D02*
G01*
X5333060Y5915421D01*
X5233339Y5915421D02*
G01*
X5233339Y5994430D01*
X5248579Y6009670D02*
G01*
X5317820Y6009670D01*
X4926660Y5486369D02*
G01*
X4926660Y5565378D01*
X4826939Y5565378D02*
G01*
X4826939Y5486369D01*
X4842179Y5471129D02*
G01*
X4911420Y5471129D01*
X4926660Y5689630D02*
G01*
X4926660Y5610621D01*
X4826939Y5610621D02*
G01*
X4826939Y5689630D01*
X4842179Y5704870D02*
G01*
X4911420Y5704870D01*
X3963339Y5842030D02*
G01*
X3963339Y5763021D01*
X4063060Y5763021D02*
G01*
X4063060Y5842030D01*
X4047820Y5857270D02*
G01*
X3978579Y5857270D01*
X3963339Y5638769D02*
G01*
X3963339Y5717778D01*
X4063060Y5717778D02*
G01*
X4063060Y5638769D01*
X4047820Y5623529D02*
G01*
X3978579Y5623529D01*
X4063969Y4953939D02*
G01*
X4142978Y4953939D01*
X4142978Y5053660D02*
G01*
X4063969Y5053660D01*
X4048729Y5038420D02*
G01*
X4048729Y4969179D01*
X4267230Y4953939D02*
G01*
X4188221Y4953939D01*
X4188221Y5053660D02*
G01*
X4267230Y5053660D01*
X4282470Y5038420D02*
G01*
X4282470Y4969179D01*
X4610130Y5841060D02*
G01*
X4531121Y5841060D01*
X4531121Y5741339D02*
G01*
X4610130Y5741339D01*
X4625370Y5756579D02*
G01*
X4625370Y5825820D01*
X4406869Y5841060D02*
G01*
X4485878Y5841060D01*
X4485878Y5741339D02*
G01*
X4406869Y5741339D01*
X4391629Y5756579D02*
G01*
X4391629Y5825820D01*
X1385239Y4089430D02*
G01*
X1385239Y4010421D01*
X1484960Y4010421D02*
G01*
X1484960Y4089430D01*
X1469720Y4104670D02*
G01*
X1400479Y4104670D01*
X1385239Y3886169D02*
G01*
X1385239Y3965178D01*
X1484960Y3965178D02*
G01*
X1484960Y3886169D01*
X1469720Y3870929D02*
G01*
X1400479Y3870929D01*
X3784630Y5447360D02*
G01*
X3705621Y5447360D01*
X3705621Y5347639D02*
G01*
X3784630Y5347639D01*
X3799870Y5362879D02*
G01*
X3799870Y5432120D01*
X3581369Y5447360D02*
G01*
X3660378Y5447360D01*
X3660378Y5347639D02*
G01*
X3581369Y5347639D01*
X3566129Y5362879D02*
G01*
X3566129Y5432120D01*
X3429030Y5701360D02*
G01*
X3350021Y5701360D01*
X3350021Y5601639D02*
G01*
X3429030Y5601639D01*
X3444270Y5616879D02*
G01*
X3444270Y5686120D01*
X3225769Y5701360D02*
G01*
X3304778Y5701360D01*
X3304778Y5601639D02*
G01*
X3225769Y5601639D01*
X3210529Y5616879D02*
G01*
X3210529Y5686120D01*
X3429030Y5942660D02*
G01*
X3350021Y5942660D01*
X3350021Y5842939D02*
G01*
X3429030Y5842939D01*
X3444270Y5858179D02*
G01*
X3444270Y5927420D01*
X3225769Y5942660D02*
G01*
X3304778Y5942660D01*
X3304778Y5842939D02*
G01*
X3225769Y5842939D01*
X3210529Y5858179D02*
G01*
X3210529Y5927420D01*
X3620439Y6616730D02*
G01*
X3620439Y6537721D01*
X3720160Y6537721D02*
G01*
X3720160Y6616730D01*
X3704920Y6631970D02*
G01*
X3635679Y6631970D01*
X3620439Y6413469D02*
G01*
X3620439Y6492478D01*
X3720160Y6492478D02*
G01*
X3720160Y6413469D01*
X3704920Y6398229D02*
G01*
X3635679Y6398229D01*
X1981230Y4647260D02*
G01*
X1902221Y4647260D01*
X1902221Y4547539D02*
G01*
X1981230Y4547539D01*
X1996470Y4562779D02*
G01*
X1996470Y4632020D01*
X1777969Y4647260D02*
G01*
X1856978Y4647260D01*
X1856978Y4547539D02*
G01*
X1777969Y4547539D01*
X1762729Y4562779D02*
G01*
X1762729Y4632020D01*
D12*
X1694403Y3879502D02*
G01*
X2674401Y3879502D01*
X1844403Y4299501D02*
G01*
X1945573Y4299501D01*
X2048225Y4299501D02*
G01*
X2070574Y4299501D01*
X2173226Y4299501D02*
G01*
X2195575Y4299501D01*
X2298227Y4299501D02*
G01*
X2320574Y4299501D01*
X2423226Y4299501D02*
G01*
X2564401Y4299501D01*
X1694403Y3879502D02*
G01*
X1694403Y3936385D01*
X1694403Y4282612D02*
G01*
X1694403Y4299501D01*
X1844403Y4299501D01*
X2674401Y3879502D02*
G01*
X2674401Y3936385D01*
X2674401Y4282612D02*
G01*
X2674401Y4299501D01*
X2564401Y4299501D01*
D10*
X3251220Y5487918D02*
G01*
X3073379Y5487918D01*
X3251220Y5180081D02*
G01*
X3073379Y5180081D01*
X2755920Y4751318D02*
G01*
X2578079Y4751318D01*
X2755920Y4443481D02*
G01*
X2578079Y4443481D01*
D13*
X2489200Y6921500D02*
G01*
X2743200Y6921500D01*
X2743200Y6667500D01*
X2489200Y6667500D01*
X2489200Y6858000D01*
D14*
X2489200Y6921500D02*
G01*
X2489200Y6858000D01*
D13*
X2209800Y6921500D02*
G01*
X2463800Y6921500D01*
X2463800Y6667500D01*
X2209800Y6667500D01*
X2209800Y6858000D01*
D14*
X2209800Y6921500D02*
G01*
X2209800Y6858000D01*
D10*
X3135960Y5826521D02*
G01*
X3135960Y5905530D01*
X3120720Y5920770D01*
X3051479Y5920770D01*
X3036239Y5905530D01*
X3036239Y5826521D01*
X3135960Y5781278D02*
G01*
X3135960Y5702269D01*
X3120720Y5687029D01*
X3051479Y5687029D01*
X3036239Y5702269D01*
X3036239Y5781278D01*
X5077221Y5233339D02*
G01*
X5156230Y5233339D01*
X5171470Y5248579D01*
X5171470Y5317820D01*
X5156230Y5333060D01*
X5077221Y5333060D01*
X5031978Y5233339D02*
G01*
X4952969Y5233339D01*
X4937729Y5248579D01*
X4937729Y5317820D01*
X4952969Y5333060D01*
X5031978Y5333060D01*
X5184378Y5650560D02*
G01*
X5105369Y5650560D01*
X5090129Y5635320D01*
X5090129Y5566079D01*
X5105369Y5550839D01*
X5184378Y5550839D01*
X5229621Y5650560D02*
G01*
X5308630Y5650560D01*
X5323870Y5635320D01*
X5323870Y5566079D01*
X5308630Y5550839D01*
X5229621Y5550839D01*
D15*
X1678812Y6788150D02*
G01*
X1678812Y6681470D01*
X1798193Y6681470D01*
X1798193Y6788150D01*
D10*
X1678812Y6930389D02*
G01*
X1680082Y6934200D01*
X1704212Y6958329D01*
X1772793Y6958329D01*
X1798193Y6932929D01*
X1678812Y6930389D02*
G01*
X1678812Y6828789D01*
X1798193Y6932929D02*
G01*
X1798193Y6828789D01*
D15*
X3121786Y6788150D02*
G01*
X3121786Y6894829D01*
X3002406Y6894829D01*
X3002406Y6788150D01*
D10*
X3121786Y6645910D02*
G01*
X3120516Y6642100D01*
X3096386Y6617970D01*
X3027806Y6617970D01*
X3002406Y6643370D01*
X3121786Y6645910D02*
G01*
X3121786Y6747510D01*
X3002406Y6643370D02*
G01*
X3002406Y6747510D01*
D12*
X2252979Y5179214D02*
G01*
X2252979Y4879200D01*
X2679700Y4879200D01*
X2679700Y4882908D02*
G01*
X2679700Y5179199D01*
X2540000Y5179214D02*
G01*
X2679700Y5179214D01*
X2252979Y5179214D02*
G01*
X2392679Y5179214D01*
D10*
X1684578Y5057160D02*
G01*
X1588691Y5057160D01*
X1588691Y4925039D01*
X1684578Y4925039D01*
X1769821Y5057160D02*
G01*
X1865708Y5057160D01*
X1865708Y4925039D01*
X1769821Y4925039D01*
X3012678Y4458639D02*
G01*
X2940875Y4458639D01*
X2940875Y4558360D01*
X3012678Y4558360D01*
X3057921Y4458639D02*
G01*
X3129724Y4458639D01*
X3129724Y4558360D01*
X3057921Y4558360D01*
X2564460Y6124178D02*
G01*
X2564460Y6052375D01*
X2464739Y6052375D01*
X2464739Y6124178D01*
X2564460Y6169421D02*
G01*
X2564460Y6241224D01*
X2464739Y6241224D01*
X2464739Y6169421D01*
X4523978Y4915839D02*
G01*
X4452175Y4915839D01*
X4452175Y5015560D01*
X4523978Y5015560D01*
X4569221Y4915839D02*
G01*
X4641024Y4915839D01*
X4641024Y5015560D01*
X4569221Y5015560D01*
X1497660Y4346178D02*
G01*
X1497660Y4274375D01*
X1397939Y4274375D01*
X1397939Y4346178D01*
X1497660Y4391421D02*
G01*
X1497660Y4463224D01*
X1397939Y4463224D01*
X1397939Y4391421D01*
X866378Y6211239D02*
G01*
X794575Y6211239D01*
X794575Y6310960D01*
X866378Y6310960D01*
X911621Y6211239D02*
G01*
X983424Y6211239D01*
X983424Y6310960D01*
X911621Y6310960D01*
X1158478Y6211239D02*
G01*
X1086675Y6211239D01*
X1086675Y6310960D01*
X1158478Y6310960D01*
X1203721Y6211239D02*
G01*
X1275524Y6211239D01*
X1275524Y6310960D01*
X1203721Y6310960D01*
X3025378Y4661839D02*
G01*
X2953575Y4661839D01*
X2953575Y4761560D01*
X3025378Y4761560D01*
X3070621Y4661839D02*
G01*
X3142424Y4661839D01*
X3142424Y4761560D01*
X3070621Y4761560D01*
X1624660Y6733778D02*
G01*
X1624660Y6661975D01*
X1524939Y6661975D01*
X1524939Y6733778D01*
X1624660Y6779021D02*
G01*
X1624660Y6850824D01*
X1524939Y6850824D01*
X1524939Y6779021D01*
X1994839Y6779021D02*
G01*
X1994839Y6850824D01*
X2094560Y6850824D01*
X2094560Y6779021D01*
X1994839Y6733778D02*
G01*
X1994839Y6661975D01*
X2094560Y6661975D01*
X2094560Y6733778D01*
X2172639Y5496321D02*
G01*
X2172639Y5568124D01*
X2272360Y5568124D01*
X2272360Y5496321D01*
X2172639Y5451078D02*
G01*
X2172639Y5379275D01*
X2272360Y5379275D01*
X2272360Y5451078D01*
X3110560Y6390878D02*
G01*
X3110560Y6319075D01*
X3010839Y6319075D01*
X3010839Y6390878D01*
X3110560Y6436121D02*
G01*
X3110560Y6507924D01*
X3010839Y6507924D01*
X3010839Y6436121D01*
D12*
X881400Y4032564D02*
G01*
X881400Y4452564D01*
X1201399Y4032564D02*
G01*
X1201399Y4452564D01*
X992014Y4032564D02*
G01*
X1090785Y4032564D01*
X1090785Y4452564D02*
G01*
X992014Y4452564D01*
X1117498Y4166235D02*
G01*
X1117498Y4318635D01*
X965098Y4166235D02*
G01*
X965200Y4318762D01*
X992014Y4032564D02*
G01*
X992002Y4032564D01*
X991941Y4032625D01*
X933965Y4090601D02*
G01*
X881400Y4143166D01*
X928286Y4394522D02*
G01*
X881400Y4347636D01*
X1159593Y4394522D02*
G01*
X1201399Y4352716D01*
X1156454Y4090601D02*
G01*
X1201399Y4135546D01*
D16*
X4589548Y5152580D02*
G01*
X4639119Y5202151D01*
D10*
X4173451Y5152580D02*
G01*
X4123880Y5152580D01*
X4123880Y5202151D01*
X4173451Y5667819D02*
G01*
X4123880Y5667819D01*
X4123880Y5618248D01*
X4589548Y5152580D02*
G01*
X4639119Y5152580D01*
X4639119Y5202151D01*
X4589548Y5667819D02*
G01*
X4639119Y5667819D01*
X4639119Y5618248D01*
D12*
X1510309Y5666003D02*
G01*
X2020315Y5666003D01*
X2020290Y5666003D02*
G01*
X2020290Y5255996D01*
X2020290Y5255996D02*
G01*
X1510284Y5255996D01*
X1510309Y5541010D02*
G01*
X1510309Y5666003D01*
X1510309Y5380989D02*
G01*
X1510309Y5255996D01*
D10*
X1829739Y6752181D02*
G01*
X1829739Y6673291D01*
X1929460Y6673291D01*
X1929460Y6752181D01*
X1829739Y6811418D02*
G01*
X1829739Y6875068D01*
X1844979Y6890308D01*
X1914220Y6890308D01*
X1929460Y6875068D01*
X1929460Y6811418D01*
X3174779Y6379179D02*
G01*
X3174779Y6549420D01*
X3480020Y6379179D02*
G01*
X3480020Y6549420D01*
X3375040Y6549420D02*
G01*
X3279759Y6549420D01*
D12*
X2390190Y6147899D02*
G01*
X2390190Y5967897D01*
X2080188Y6147899D02*
G01*
X2080188Y5967897D01*
D10*
X3499995Y4946967D02*
G01*
X3815232Y4946967D01*
X3815232Y5162214D02*
G01*
X3499995Y5162214D01*
D12*
X1295798Y5853998D02*
G01*
X1295798Y5829998D01*
X895162Y5914999D02*
G01*
X1134435Y5914999D01*
X728934Y5001000D02*
G01*
X540801Y5001000D01*
X540801Y5914999D01*
X728934Y5914999D01*
X1134435Y5001000D02*
G01*
X895162Y5001000D01*
X1301798Y5091000D02*
G01*
X1301798Y5058001D01*
D10*
X4225290Y4562094D02*
G01*
X4225290Y4416297D01*
X4351020Y4416297D01*
X4253991Y4439157D02*
G01*
X4244593Y4439157D01*
X4244593Y4704842D01*
X4570475Y4704842D01*
X4570475Y4439157D01*
X4253991Y4439157D01*
D17*
X5714146Y5968895D02*
G01*
X5714146Y6018895D01*
X5814146Y6018895D01*
X6234145Y6018895D01*
X6234198Y6018999D02*
G01*
X6234198Y5858997D01*
X6234198Y4469003D01*
X6234198Y4469003D02*
G01*
X5714199Y4469003D01*
X5714199Y5969000D02*
G01*
X5714199Y4469003D01*
D10*
X4267200Y6858000D02*
G01*
X4330700Y6921500D01*
X4457700Y6921500D01*
X4521200Y6858000D01*
X4584700Y6921500D01*
X4711700Y6921500D01*
X4775200Y6858000D01*
X4775200Y6731000D01*
X4711700Y6667500D01*
X4584700Y6667500D01*
X4521200Y6731000D01*
X4457700Y6667500D01*
X4330700Y6667500D01*
X4267200Y6731000D01*
X4203700Y6667500D01*
X4076700Y6667500D01*
X4013200Y6731000D01*
X4013200Y6858000D01*
X4076700Y6921500D01*
X4203700Y6921500D01*
X4267200Y6858000D01*
X4267200Y6731000D01*
X4521200Y6731000D02*
G01*
X4521200Y6858000D01*
X4013200Y6731000D02*
G01*
X3949700Y6667500D01*
X3822700Y6667500D01*
X3759200Y6731000D01*
X3759200Y6858000D01*
X3822700Y6921500D01*
X3949700Y6921500D01*
X4013200Y6858000D01*
X1283639Y6667530D02*
G01*
X1283639Y6588521D01*
X1383360Y6588521D02*
G01*
X1383360Y6667530D01*
X1368120Y6682770D02*
G01*
X1298879Y6682770D01*
X1283639Y6464269D02*
G01*
X1283639Y6543278D01*
X1383360Y6543278D02*
G01*
X1383360Y6464269D01*
X1368120Y6449029D02*
G01*
X1298879Y6449029D01*
X1383360Y6822678D02*
G01*
X1383360Y6750875D01*
X1283639Y6750875D01*
X1283639Y6822678D01*
X1383360Y6867921D02*
G01*
X1383360Y6939724D01*
X1283639Y6939724D01*
X1283639Y6867921D01*
D12*
X894100Y6445564D02*
G01*
X894100Y6865564D01*
X1214099Y6445564D02*
G01*
X1214099Y6865564D01*
X1004714Y6445564D02*
G01*
X1103485Y6445564D01*
X1103485Y6865564D02*
G01*
X1004714Y6865564D01*
X1130198Y6579235D02*
G01*
X1130198Y6731635D01*
X977798Y6579235D02*
G01*
X977900Y6731762D01*
X1004714Y6445564D02*
G01*
X1004702Y6445564D01*
X1004641Y6445625D01*
X946665Y6503601D02*
G01*
X894100Y6556166D01*
X940986Y6807522D02*
G01*
X894100Y6760636D01*
X1172293Y6807522D02*
G01*
X1214099Y6765716D01*
X1169154Y6503601D02*
G01*
X1214099Y6548546D01*
G75*
G01*
X1347051Y4671139D02*
G02*
X1316068Y4640156I-30983J0D01*
G75*
G01*
X1316068Y4782122D02*
G02*
X1347051Y4751136I0J-30983D01*
G75*
G01*
X1098481Y4640737D02*
G02*
X1067499Y4671723I0J30983D01*
G75*
G01*
X1067499Y4751720D02*
G02*
X1098481Y4782703I30982J0D01*
G75*
G01*
X3186849Y6161961D02*
G02*
X3217832Y6192944I30983J0D01*
G75*
G01*
X3217832Y6050978D02*
G02*
X3186849Y6081964I0J30983D01*
G75*
G01*
X3435419Y6192363D02*
G02*
X3466401Y6161377I0J-30983D01*
G75*
G01*
X3466401Y6081380D02*
G02*
X3435419Y6050397I-30982J0D01*
G75*
G01*
X3224949Y6873161D02*
G02*
X3255932Y6904144I30983J0D01*
G75*
G01*
X3255932Y6762178D02*
G02*
X3224949Y6793164I0J30983D01*
G75*
G01*
X3473519Y6903563D02*
G02*
X3504501Y6872577I0J-30983D01*
G75*
G01*
X3504501Y6792580D02*
G02*
X3473519Y6761597I-30982J0D01*
G75*
G01*
X5091849Y4980861D02*
G02*
X5122832Y5011844I30983J0D01*
G75*
G01*
X5122832Y4869878D02*
G02*
X5091849Y4900864I0J30983D01*
G75*
G01*
X5340419Y5011263D02*
G02*
X5371401Y4980277I0J-30983D01*
G75*
G01*
X5371401Y4900280D02*
G02*
X5340419Y4869297I-30982J0D01*
G75*
G01*
X4812449Y5895256D02*
G02*
X4843432Y5926239I30983J0D01*
G75*
G01*
X4843432Y5784273D02*
G02*
X4812449Y5815259I0J30983D01*
G75*
G01*
X5061019Y5925657D02*
G02*
X5092001Y5894672I0J-30982D01*
G75*
G01*
X5092001Y5814675D02*
G02*
X5061019Y5783692I-30982J0D01*
G75*
G01*
X3540724Y5641261D02*
G02*
X3571707Y5672244I30983J0D01*
G75*
G01*
X3571707Y5530278D02*
G02*
X3540724Y5561264I0J30983D01*
G75*
G01*
X3789294Y5671663D02*
G02*
X3820277Y5640677I0J-30983D01*
G75*
G01*
X3820277Y5560680D02*
G02*
X3789294Y5529697I-30983J0D01*
D10*
G75*
G01*
X2667030Y5842940D02*
G03*
X2682270Y5858180I0J15240D01*
G75*
G01*
X2682270Y5927420D02*
G03*
X2667030Y5942660I-15240J0D01*
G75*
G01*
X2463770Y5842940D02*
G02*
X2448530Y5858180I0J15240D01*
G75*
G01*
X2448530Y5927420D02*
G02*
X2463770Y5942660I15240J0D01*
G75*
G01*
X4812360Y5118130D02*
G03*
X4797120Y5133370I-15240J0D01*
G75*
G01*
X4727880Y5133370D02*
G03*
X4712640Y5118130I0J-15240D01*
G75*
G01*
X4812360Y4914870D02*
G02*
X4797120Y4899630I-15240J0D01*
G75*
G01*
X4727880Y4899630D02*
G02*
X4712640Y4914870I0J15240D01*
G75*
G01*
X5358460Y5334030D02*
G03*
X5343220Y5349270I-15240J0D01*
G75*
G01*
X5273980Y5349270D02*
G03*
X5258740Y5334030I0J-15240D01*
G75*
G01*
X5358460Y5130770D02*
G02*
X5343220Y5115530I-15240J0D01*
G75*
G01*
X5273980Y5115530D02*
G02*
X5258740Y5130770I0J15240D01*
G75*
G01*
X4648230Y4738040D02*
G03*
X4663470Y4753280I0J15240D01*
G75*
G01*
X4663470Y4822520D02*
G03*
X4648230Y4837760I-15240J0D01*
G75*
G01*
X4444970Y4738040D02*
G02*
X4429730Y4753280I0J15240D01*
G75*
G01*
X4429730Y4822520D02*
G02*
X4444970Y4837760I15240J0D01*
G75*
G01*
X4343430Y4750740D02*
G03*
X4358670Y4765980I0J15240D01*
G75*
G01*
X4358670Y4835220D02*
G03*
X4343430Y4850460I-15240J0D01*
G75*
G01*
X4140170Y4750740D02*
G02*
X4124930Y4765980I0J15240D01*
G75*
G01*
X4124930Y4835220D02*
G02*
X4140170Y4850460I15240J0D01*
G75*
G01*
X5233340Y5791170D02*
G03*
X5248580Y5775930I15240J0D01*
G75*
G01*
X5317820Y5775930D02*
G03*
X5333060Y5791170I0J15240D01*
G75*
G01*
X5233340Y5994430D02*
G02*
X5248580Y6009670I15240J0D01*
G75*
G01*
X5317820Y6009670D02*
G02*
X5333060Y5994430I0J-15240D01*
G75*
G01*
X4826940Y5486370D02*
G03*
X4842180Y5471130I15240J0D01*
G75*
G01*
X4911420Y5471130D02*
G03*
X4926660Y5486370I0J15240D01*
G75*
G01*
X4826940Y5689630D02*
G02*
X4842180Y5704870I15240J0D01*
G75*
G01*
X4911420Y5704870D02*
G02*
X4926660Y5689630I0J-15240D01*
G75*
G01*
X4063060Y5842030D02*
G03*
X4047820Y5857270I-15240J0D01*
G75*
G01*
X3978580Y5857270D02*
G03*
X3963340Y5842030I0J-15240D01*
G75*
G01*
X4063060Y5638770D02*
G02*
X4047820Y5623530I-15240J0D01*
G75*
G01*
X3978580Y5623530D02*
G02*
X3963340Y5638770I0J15240D01*
G75*
G01*
X4063970Y5053660D02*
G03*
X4048730Y5038420I0J-15240D01*
G75*
G01*
X4048730Y4969180D02*
G03*
X4063970Y4953940I15240J0D01*
G75*
G01*
X4267230Y5053660D02*
G02*
X4282470Y5038420I0J-15240D01*
G75*
G01*
X4282470Y4969180D02*
G02*
X4267230Y4953940I-15240J0D01*
G75*
G01*
X4610130Y5741340D02*
G03*
X4625370Y5756580I0J15240D01*
G75*
G01*
X4625370Y5825820D02*
G03*
X4610130Y5841060I-15240J0D01*
G75*
G01*
X4406870Y5741340D02*
G02*
X4391630Y5756580I0J15240D01*
G75*
G01*
X4391630Y5825820D02*
G02*
X4406870Y5841060I15240J0D01*
G75*
G01*
X1484960Y4089430D02*
G03*
X1469720Y4104670I-15240J0D01*
G75*
G01*
X1400480Y4104670D02*
G03*
X1385240Y4089430I0J-15240D01*
G75*
G01*
X1484960Y3886170D02*
G02*
X1469720Y3870930I-15240J0D01*
G75*
G01*
X1400480Y3870930D02*
G02*
X1385240Y3886170I0J15240D01*
G75*
G01*
X3784630Y5347640D02*
G03*
X3799870Y5362880I0J15240D01*
G75*
G01*
X3799870Y5432120D02*
G03*
X3784630Y5447360I-15240J0D01*
G75*
G01*
X3581370Y5347640D02*
G02*
X3566130Y5362880I0J15240D01*
G75*
G01*
X3566130Y5432120D02*
G02*
X3581370Y5447360I15240J0D01*
G75*
G01*
X3429030Y5601640D02*
G03*
X3444270Y5616880I0J15240D01*
G75*
G01*
X3444270Y5686120D02*
G03*
X3429030Y5701360I-15240J0D01*
G75*
G01*
X3225770Y5601640D02*
G02*
X3210530Y5616880I0J15240D01*
G75*
G01*
X3210530Y5686120D02*
G02*
X3225770Y5701360I15240J0D01*
G75*
G01*
X3429030Y5842940D02*
G03*
X3444270Y5858180I0J15240D01*
G75*
G01*
X3444270Y5927420D02*
G03*
X3429030Y5942660I-15240J0D01*
G75*
G01*
X3225770Y5842940D02*
G02*
X3210530Y5858180I0J15240D01*
G75*
G01*
X3210530Y5927420D02*
G02*
X3225770Y5942660I15240J0D01*
G75*
G01*
X3720160Y6616730D02*
G03*
X3704920Y6631970I-15240J0D01*
G75*
G01*
X3635680Y6631970D02*
G03*
X3620440Y6616730I0J-15240D01*
G75*
G01*
X3720160Y6413470D02*
G02*
X3704920Y6398230I-15240J0D01*
G75*
G01*
X3635680Y6398230D02*
G02*
X3620440Y6413470I0J15240D01*
G75*
G01*
X1981230Y4547540D02*
G03*
X1996470Y4562780I0J15240D01*
G75*
G01*
X1996470Y4632020D02*
G03*
X1981230Y4647260I-15240J0D01*
G75*
G01*
X1777970Y4547540D02*
G02*
X1762730Y4562780I0J15240D01*
G75*
G01*
X1762730Y4632020D02*
G02*
X1777970Y4647260I15240J0D01*
D18*
G75*
G01*
X2207260Y5202936D02*
G03*
X2207260Y5202682I-15001J-127D01*
D12*
G75*
G01*
X2540000Y5179215D02*
G02*
X2395220Y5179215I-72390J0D01*
G75*
G01*
X1117498Y4166235D02*
G02*
X965098Y4166235I-76200J0D01*
G75*
G01*
X965200Y4318762D02*
G02*
X1117498Y4318635I76149J-63D01*
G75*
G01*
X1515313Y5541010D02*
G02*
X1515313Y5380990I-37528J-80010D01*
D10*
G75*
G01*
X1383360Y6667530D02*
G03*
X1368120Y6682770I-15240J0D01*
G75*
G01*
X1298880Y6682770D02*
G03*
X1283640Y6667530I0J-15240D01*
G75*
G01*
X1383360Y6464270D02*
G02*
X1368120Y6449030I-15240J0D01*
G75*
G01*
X1298880Y6449030D02*
G02*
X1283640Y6464270I0J15240D01*
D12*
G75*
G01*
X1130198Y6579235D02*
G02*
X977798Y6579235I-76200J0D01*
G75*
G01*
X977900Y6731762D02*
G02*
X1130198Y6731635I76149J-63D01*
D18*
G75*
G01
X3307461Y5167173D02*
G03X3307461Y5167173I-15011J0D01*
G75*
G01
X2812161Y4430573D02*
G03X2812161Y4430573I-15011J0D01*
D17*
G75*
G01
X4681499Y5180203D02*
G03X4681499Y5180203I-10008J0D01*
D12*
G75*
G01
X1479321Y5210988D02*
G03X1479321Y5210988I-17018J0D01*
D19*
G75*
G01
X1933270Y6781800D02*
G03X1933270Y6781800I-3810J0D01*
G75*
G01
X1833550Y6781800D02*
G03X1833550Y6781800I-3810J0D01*
D18*
G75*
G01
X3177311Y6350000D02*
G03X3177311Y6350000I-15011J0D01*
D12*
G75*
G01
X2082800Y5918200D02*
G03X2082800Y5918200I-12700J0D01*
D17*
G75*
G01
X3464408Y5130800D02*
G03X3464408Y5130800I-10008J0D01*
M02*
